<svg xmlns="http://www.w3.org/2000/svg" viewBox="0 0 200 200"><defs><style>.cls-1{fill:#3a3a39;}.cls-2{fill:#fff;}</style></defs><title>icon-paperPlane-gray</title><g id="backgrounds"><path id="gray" class="cls-1" d="M200,100A100,100,0,1,1,100,0,100,100,0,0,1,200,100Z"/></g><g id="Icons"><path id="Paper_plane" data-name="Paper plane" d="M147,56,41.43,93.16c-1.7.6-2.08,2.06-.06,2.87l22.69,9.09h0l13.45,5.4,65.67-48.23c.88-.65,1.9.57,1.26,1.26l-47.06,50.9h0l-2.71,3,3.58,1.93h0l29.79,16a3,3,0,0,0,4.49-2c.59-2.55,17-73.3,17.38-74.88C150.38,56.49,149,55.24,147,56ZM77.39,142.82c0,1.47.83,1.88,2,.84,1.5-1.36,17-15.3,17-15.3l-19-9.84Z"/><path id="Paper_plane-2" data-name="Paper plane" class="cls-2" d="M147,56,41.43,93.16c-1.7.6-2.08,2.06-.06,2.87l22.69,9.09h0l13.45,5.4,65.67-48.23c.88-.65,1.9.57,1.26,1.26l-47.06,50.9h0l-2.71,3,3.58,1.93h0l29.79,16a3,3,0,0,0,4.49-2c.59-2.55,17-73.3,17.38-74.88C150.38,56.49,149,55.24,147,56ZM77.39,142.82c0,1.47.83,1.88,2,.84,1.5-1.36,17-15.3,17-15.3l-19-9.84Z"/></g></svg>