<svg id="Layer_1" data-name="Layer 1" xmlns="http://www.w3.org/2000/svg" width="200" height="200" viewBox="0 0 200 200"><defs><style>.cls-1{fill:#ffde2a;}.cls-2{fill:#f21717;}.cls-3{fill:#880933;}.cls-4{fill:#75dbf4;}.cls-5{fill:#235685;}.cls-6{fill:none;}</style></defs><title>among-us-logo-freelogovectors.net_</title><path class="cls-1" d="M33.86,13.73C40.4,11,47.6,10.28,54.65,10.19q45.76,0,91.55,0c6.53.15,13.21.8,19.33,3.28A37.68,37.68,0,0,1,186.8,35c2.95,7.53,3.16,15.75,3.07,23.72q0,43.74,0,87.49c-.25,5.61-.36,11.46-2.6,16.7.73-5.86-.18-11.73-.25-17.61-.4-11.65-1.66-23.24-3-34.82-1.29-5.4-2-11.11-4.81-16-1.4-2.81-4.54-3.91-7.33-4.78a82.45,82.45,0,0,0-18.66-3c-1.54-8.56-2.12-17.4-5.28-25.58-3.14-7-5.69-14.44-10.29-20.7a45.69,45.69,0,0,0-16.89-11A19.05,19.05,0,0,0,113.43,28c-8.41-.1-16.81-.83-25.23-.49a47.57,47.57,0,0,0-24.54,9.2C56.47,42.07,49.19,47.56,44,54.92,41.7,58.24,40.9,62.23,39.78,66,30.7,71.63,24.64,81.35,22.5,91.7a30.52,30.52,0,0,0,5.66,23.8,19.52,19.52,0,0,0,2.7,2.16c-.33,8.11-.36,16.22-.48,24.32a124.62,124.62,0,0,0,0,17.71,154.93,154.93,0,0,0,2.7,26.22,37.92,37.92,0,0,1-20.32-22.1c-2.08-5.89-2.59-12.2-2.66-18.41q0-45.41,0-90.82c.07-6.79.69-13.74,3.29-20.08A37.66,37.66,0,0,1,33.86,13.73Z"/><path d="M63.66,36.75a47.57,47.57,0,0,1,24.54-9.2c8.42-.34,16.82.39,25.23.49a19.05,19.05,0,0,1,7.38,1.39,45.69,45.69,0,0,1,16.89,11c4.6,6.26,7.15,13.66,10.29,20.7,3.16,8.18,3.74,17,5.28,25.58a82.45,82.45,0,0,1,18.66,3c2.79.87,5.93,2,7.33,4.78,2.79,4.89,3.52,10.6,4.81,16,1.29,11.58,2.55,23.17,3,34.82.07,5.88,1,11.75.25,17.61a34,34,0,0,1-13.4,18.78l-.37-.18a171.18,171.18,0,0,0,1.86-41.13c-.42-7.55-.75-15.11-1.43-22.63-.7-4.64-1.06-9.38-2.36-13.9-1.38-2-3.18-4.54-5.91-4.26a79.71,79.71,0,0,1-10.7-.87c.32,5,.91,9.93,1.15,14.91,1.11,18.12.69,36.32-.19,54.45-.13,7-1.16,14-1.11,21.09a104.46,104.46,0,0,1-10.9.6c1-6.35.28-12.8.49-19.2.55-13.17.42-26.36.36-39.53.06-9.26-1-18.49-.48-27.75.07-4.85.48-9.88-1.25-14.52-1.95-4.9-2-10.26-3.23-15.35a47.86,47.86,0,0,0-5.54-16.12,23.47,23.47,0,0,0-12.89-13.18c-4-2-8.33-3.59-12.88-3.42-8.22.15-16.83-1.28-24.68,1.9-5.89,2.68-12.25,4.61-17.51,8.49-3.15,3-6.1,6.14-9.36,9,6.17-1.36,12.44-.14,18.67-.32A130.3,130.3,0,0,1,95,61.45c4.51.48,8.5,2.82,12.35,5.06,4.06,3.06,6.49,7.71,9.14,11.94,2.51,3.62,1.63,8.17,1.94,12.29.3,5.05-.2,10.33-2.74,14.81-3,5.62-6.09,12-12,15-8.95,4-18.43,7.35-28.34,7.57A69.73,69.73,0,0,1,42.5,122.6c-.37,5.15-1.12,10.29-1.07,15.47-1,7.16-.65,14.39-.83,21.6-.31,10,2.75,19.68,4.35,29.48a43.48,43.48,0,0,1-11.86-3.24,154.93,154.93,0,0,1-2.7-26.22,124.62,124.62,0,0,1,0-17.71c.12-8.1.15-16.21.48-24.32a19.52,19.52,0,0,1-2.7-2.16A30.52,30.52,0,0,1,22.5,91.7C24.64,81.35,30.7,71.63,39.78,66c1.12-3.8,1.92-7.79,4.17-11.11,5.24-7.36,12.52-12.85,19.71-18.17M58.44,72.2c-10.53.82-20.65,7.36-25.11,17-.92,3.52-1.35,7.33-.07,10.82,1.38,4.19,5.09,6.87,8.1,9.85a53.37,53.37,0,0,0,15.7,5.7,52,52,0,0,0,30.68.87c3.91-1,7.11-3.52,10.32-5.81,4-2.59,5.9-7.08,8.09-11.06,1.09-7.23,2.91-15.89-2.22-22-2.31-3.28-6.63-3.68-10.29-4a43.7,43.7,0,0,0-10.4-1.88c-8.28-.12-16.55-.14-24.8.55Z"/><path class="cls-2" d="M83.81,42.64c7.85-3.18,16.46-1.75,24.68-1.9,4.55-.17,8.89,1.38,12.88,3.42a23.47,23.47,0,0,1,12.89,13.18c.23,4.81,1.59,9.46,2.17,14.23.83,6.33.94,12.72,1.84,19.05,1.2,9.43-.24,18.87-1.56,28.2-.68,5.74-2.38,11.29-3.69,16.92-1.8,6.75-3.53,13.61-6.88,19.79-2.2,6.12-5.38,12.37-11,16-5.74,1.87-11.54,4-17.62,4.27-7,.23-14,1.54-21,.74-5.32-.64-10.86-1.21-15.66-3.79a27.8,27.8,0,0,1-14.57-17.38c-2.27-5.59-3.09-11.57-4.83-17.31,0-5.18.7-10.32,1.07-15.47a69.73,69.73,0,0,0,32.87,5.56c9.91-.22,19.39-3.56,28.34-7.57,5.93-3.08,9-9.42,12-15,2.54-4.48,3-9.76,2.74-14.81-.31-4.12.57-8.67-1.94-12.29-2.65-4.23-5.08-8.88-9.14-11.94-3.85-2.24-7.84-4.58-12.35-5.06A130.3,130.3,0,0,0,75.61,59.8c-6.23.18-12.5-1-18.67.32,3.26-2.85,6.21-6,9.36-9,5.26-3.88,11.62-5.81,17.51-8.49M155,98.76a79.71,79.71,0,0,0,10.7.87c2.73-.28,4.53,2.3,5.91,4.26,1.3,4.52,1.66,9.26,2.36,13.9-5.22-3.6-11.6-4.72-17.82-4.12-.24-5-.83-9.93-1.15-14.91Z"/><path class="cls-3" d="M134.26,57.34a47.86,47.86,0,0,1,5.54,16.12c1.19,5.09,1.28,10.45,3.23,15.35,1.73,4.64,1.32,9.67,1.25,14.52-.55,9.26.54,18.49.48,27.75.06,13.17.19,26.36-.36,39.53-.21,6.4.49,12.85-.49,19.2-26.13-.06-52.28,0-78.41,0-6.85-.05-13.73.28-20.55-.63-1.6-9.8-4.66-19.46-4.35-29.48.18-7.21-.19-14.44.83-21.6,1.74,5.74,2.56,11.72,4.83,17.31a27.8,27.8,0,0,0,14.57,17.38c4.8,2.58,10.34,3.15,15.66,3.79,7,.8,14-.51,21-.74,6.08-.31,11.88-2.4,17.62-4.27,5.61-3.64,8.79-9.89,11-16,3.35-6.18,5.08-13,6.88-19.79,1.31-5.63,3-11.18,3.69-16.92,1.32-9.33,2.76-18.77,1.56-28.2-.9-6.33-1-12.72-1.84-19.05-.58-4.77-1.94-9.42-2.17-14.23m21.85,56.33c6.22-.6,12.6.52,17.82,4.12.68,7.52,1,15.08,1.43,22.63a171.18,171.18,0,0,1-1.86,41.13l-.22.64c-5.31,4.06-11.92,6.1-18.47,7-.05-7,1-14,1.11-21.09.88-18.13,1.3-36.33.19-54.45Z"/><path class="cls-4" d="M58.44,72.2c8.25-.69,16.52-.67,24.8-.55a43.7,43.7,0,0,1,10.4,1.88c2.43,2.28,4.7,5.23,4.31,8.78.45,6.33-3.78,11.83-8.62,15.4-4.53,2-9.68,2-14.54,2.57-11,.22-21.9-1-32.79-2-4.52-.34-9.07-4.23-8.67-9,4.46-9.69,14.58-16.23,25.11-17m4.08,2.25C57,75.73,51,76.44,46.17,79.76a5.3,5.3,0,0,0-1.53,7.42c.9,1.87,3.26,1.11,4.91,1.24,9-.6,18-.79,26.94-2.28,1.75-.28,3-1.8,3.74-3.3,1.38-3.91-2.15-8.56-6.2-8.61a56,56,0,0,0-11.51.22Z"/><path class="cls-5" d="M93.64,73.53c3.66.37,8,.77,10.29,4,5.13,6.15,3.31,14.81,2.22,22-2.19,4-4.14,8.47-8.09,11.06-3.21,2.29-6.41,4.83-10.32,5.81a52,52,0,0,1-30.68-.87,53.37,53.37,0,0,1-15.7-5.7c-3-3-6.72-5.66-8.1-9.85-1.28-3.49-.85-7.3.07-10.82-.4,4.8,4.15,8.69,8.67,9,10.89,1,21.83,2.22,32.79,2,4.86-.54,10-.55,14.54-2.57,4.84-3.57,9.07-9.07,8.62-15.4.39-3.55-1.88-6.5-4.31-8.78Z"/><rect class="cls-6" width="200" height="200"/></svg>