<svg xmlns="http://www.w3.org/2000/svg" width="1080" height="1080" xmlns:v="https://vecta.io/nano"><path d="M489.385 988.28c-.862-1.011-2.88-5.619-4.485-10.241-6.356-18.3-19.205-41-47.264-83.5l-22.315-34.66c-8.578-15.269-12.902-32.029-12.915-50.063-.013-17.722 4.443-31.573 12.911-40.134 3.833-3.875 9.54-6.446 11.02-4.964.339.34-.521 5.466-1.911 11.391-6.38 27.184-.043 47.102 14.516 45.621 8.685-.883 15.865-9.764 17.592-21.761 1.195-8.302-3.871-33.327-9.773-48.272-3.753-9.503-7.732-15.773-17.211-27.117-4.498-5.383-8.178-10.479-8.178-11.324 0-4.466 7.799-1.739 19.352 6.765 4.007 2.95 7.492 5.156 7.744 4.903s-1.495-4.219-3.883-8.814c-4.425-8.513-6.546-17.131-4.525-18.381.603-.373 3.846 1.856 7.206 4.955 9.507 8.767 13.617 10.132 16.634 5.524 1.479-2.259 1.489-2.922.092-6.268-.859-2.058-5.496-7.893-10.304-12.966-21.534-22.72-24.22-25.909-27.212-32.31-1.688-3.611-3.356-8.992-3.707-11.958-.977-8.254.782-7.406 11.176 5.389 11.674 14.371 24.315 20.418 30.712 14.693 2.841-2.543 2.187-6.627-1.881-11.749-3.272-4.12-3.517-4.834-2.136-6.217 2.246-2.248 11.218-.051 19.11 4.679 12.984 7.782 22.562 20.113 26.057 33.545 2.153 8.275 2.024 12.359-.486 15.332l-2.093 2.48-3.94-4.432c-6.185-6.956-13.192-8.246-14.586-2.684-1.317 5.253.571 16.058 4.418 25.286 6.081 14.586 10.785 27.99 13.19 37.588 1.228 4.9 2.372 8.771 2.543 8.6s.811-9.758 1.424-21.306c1.606-30.264 5.664-47.634 13.677-58.541 1.76-2.396 3.2-5.61 3.2-7.142 0-3.719-4.241-9.327-14.3-18.91-15.784-15.038-25.509-20.026-51.848-26.598-21.322-5.32-31.728-9.386-40.648-15.882-12.396-9.029-19.28-21.324-23.835-42.571-5.727-26.711-6.606-29.576-10.24-33.36-4.131-4.302-17.883-13.55-26.49-17.813-23.513-11.648-70.324-20.048-103.879-18.64-32.105 1.347-53.86 4.236-79.69 10.581-19.579 4.81-23.65 4.74-18.155-.309 6.007-5.52 27.196-13.689 51.211-19.743 26.569-6.697 31.22-7.229 61.849-7.075 42.754.216 59.698 2.305 87.988 10.846 35.121 10.604 51.625 20 73.649 41.932 12.938 12.884 15.794 16.17 41.583 47.85 29.24 35.919 53.976 56.162 69.075 56.527 8.277.2 22.059-7.618 38.718-21.963 8.203-7.063 20.369-20.741 42.942-48.279 38.092-46.469 54.45-59.177 93.418-72.576 29.404-10.11 42.509-12.343 82.818-14.114 30.889-1.357 45.307-.506 64.528 3.806 23.323 5.233 56.496 16.113 63.468 20.816 4.229 2.853 5.066 5.877 1.626 5.875-1.341-.001-7.16-1.144-12.931-2.541-40.835-9.884-87.504-14.122-117.907-10.707-37.345 4.195-64.889 12.653-86.703 26.624-13.849 8.87-15.094 10.956-19.464 32.614-9.265 45.918-19.701 56.755-65.528 68.043-25.862 6.37-30.669 8.455-43.782 18.988-11.012 8.845-19.228 16.748-21.935 21.098l-2.115 3.399 4.779 10.436c8.653 18.895 12.423 36.309 13.78 63.641l.73 14.704 3.446-12.604c1.895-6.932 5.851-18.211 8.789-25.064 8.675-20.23 10.553-29.828 6.868-35.095-2.384-3.407-4.413-2.932-12.412 2.905-3.949 2.882-7.598 4.981-8.109 4.664-1.624-1.005-1.002-13.685.983-20.051 4.691-15.044 17.925-28.365 34.313-34.539 10.832-4.081 12.358-2.333 6.662 7.632l-3.28 5.739 2.074 2.791c1.556 2.094 3.156 2.872 6.407 3.113 7.839.582 14.717-4.163 26.5-18.284 4.048-4.851 7.809-8.821 8.357-8.821 1.518 0 1.19 7.592-.541 12.502-2.665 7.562-9.013 15.93-23.257 30.661-14.734 15.238-17.614 19.319-16.571 23.479 1.657 6.609 5.809 6.071 15.688-2.034 3.866-3.172 7.448-5.509 7.96-5.192 1.941 1.201.785 6.983-3.265 16.331-2.307 5.325-4.04 9.838-3.849 10.028s3.781-2.325 7.979-5.59c7.618-5.925 13.968-9 16.543-8.011 3.005 1.154 1.766 3.355-9.64 17.121-9.984 12.049-11.482 14.684-15.732 27.67-10.101 30.866-10.32 51.004-.659 60.675 4.801 4.806 11.972 6.354 17.41 3.758 5.428-2.591 8.938-10.718 8.915-20.643-.019-7.766-1.481-24.537-2.73-31.292-.83-4.49 1.673-5.531 6.745-2.802 14.557 7.832 20.614 47.27 11.578 75.378-3.743 11.645-11.308 24.957-30.222 53.187-26.46 39.492-35.659 55.479-46.174 80.246-6.837 16.102-8.271 17.423-11.24 10.344-2.027-4.835-1.369-18.693 1.778-37.402l2.079-12.918c0-.304-2.243 1.307-4.984 3.58s-9.234 6.993-14.428 10.489c-13.009 8.756-15.445 11.628-19.831 23.385-3.869 10.371-6.449 13.654-10.73 13.654-3.1 0-5.788-4.111-8.929-13.654-4.043-12.287-5.365-14.059-15.317-20.525-5.06-3.288-12.453-8.596-16.43-11.797l-7.23-5.819.628 3.578c3.25 18.511 4.341 45.937 1.991 50.055-1.623 2.844-2.548 2.949-4.614.525zm53.904-43.063c1.479-1.589 4.579-5.724 6.889-9.19 9.341-14.018 9.707-16.926 2.961-23.553-2.553-2.508-5.97-7.45-7.594-10.984-2.72-5.918-2.952-7.42-2.942-19.029.013-15.156 1.596-19.353 10.469-27.753 7.421-7.025 14.979-10.564 22.546-10.557 7.97 0 17.05 2.324 22.016 5.613 7.002 4.638 7.685 3.694 4.084-5.64-1.756-4.552-2.338-8.894-2.744-20.481-.895-25.554 2.885-42.656 15.314-69.279 3.495-7.487 6.089-13.868 5.764-14.179-.872-.835-17.031 16.591-21.727 23.43-5.589 8.14-9.015 17.167-10.062 26.51-.809 7.217-.54 11.635 1.568 25.765 1.002 6.715-.961 7.747-5.262 2.766-3.902-4.518-7.421-14.181-9.087-24.947-1.656-10.706-2.526-12.06-4.02-6.257-1.713 6.654-8.424 26.996-10.576 32.056-1.935 4.551-4.64 7.811-6.48 7.811-1.16 0-.961-4.322 1.279-27.833 1.17-12.278-.067-50.127-2.119-64.803-1.856-13.278-6.392-24.697-11.016-27.73-2.409-1.58-2.81-1.581-5.211-.01-3.429 2.249-5.467 6.381-7.982 16.189-3.199 12.476-5.166 28.476-5.836 47.466-.587 16.644-.039 25.035 2.924 44.709 1.48 9.828.927 12.656-2.15 11.008-3.703-1.984-13.013-25.718-15.385-39.223-.385-2.193-.918-3.77-1.183-3.505s-1.374 4.66-2.464 9.764c-3.114 14.588-5.346 20.342-9.657 24.898-2.165 2.288-4.249 3.848-4.63 3.466s-.096-6.056.633-12.609c1.019-9.148 1.05-13.702.134-19.61-2.225-14.352-9.162-27.852-19.649-38.237-5.723-5.667-12.949-11.62-12.949-10.667 0 .346 2.753 6.176 6.119 12.955s7.13 15.161 8.366 18.627c8.983 25.192 10.953 52.965 5.063 71.376-1.471 4.596-2.569 8.463-2.44 8.591s4.005-1.453 8.614-3.515c10.611-4.747 21.322-5.778 30.024-2.889 7.547 2.506 17.601 12.4 20.237 19.914 2.662 7.588 3.602 16.791 2.571 25.152-.957 7.759-2.605 10.956-10.911 21.164-6.096 7.492-6.437 9.017-3.235 14.486 3.729 6.369 15.154 21.648 16.187 21.648.472 0 2.068-1.3 3.547-2.888zm-42.684-35.158c1.737-.912 4.701-3.809 6.587-6.437 9.157-12.764 8.761-26.309-.981-33.531-4.861-3.603-16.28-1.731-18.08 2.964-1.357 3.539-.558 10.733 2.07 18.629 4.121 12.386.954 14.256-8.989 5.308-5.652-5.087-11.571-15.596-11.571-20.544 0-3.696-1.686-7.115-3.509-7.115-.735 0-2.208-.638-3.272-1.417-1.543-1.129-2.093-3.501-2.711-11.677-.579-7.669-1.294-10.958-2.829-13.025-2.873-3.866-5.835-4.023-8.646-.459-5.02 6.365-1.453 16.264 14.428 40.044l14.264 21.98c2.867 4.741 4.748 6.735 6.778 7.182l3.795.855c2.041.491 9.628-1.16 12.666-2.756zm98.7 1.032c.455-.455 9.416-14.454 21.353-33.357 12.674-20.069 15.34-29.336 10.171-35.352-2.264-2.634-2.765-2.788-5.301-1.632-3.843 1.753-5.84 7.182-5.84 15.875 0 8.814-1.266 12.706-4.134 12.706-2.448 0-3.702 2.088-4.729 7.877-1.645 9.27-8.03 18.829-15.778 23.622-6.179 3.823-9.314.244-5.762-6.578 4.813-9.243 4.594-20.068-.474-23.392-4.21-2.761-8.37-3.493-11.754-2.069-4.138 1.742-8.475 7.047-9.806 11.994-1.334 4.959.135 13.643 3.127 18.489 3.609 5.845 10.957 11.873 15.377 12.615 2.216.372 4.501.797 5.078.943 1.174.298 7.794-1.063 8.472-1.742zM462.706 612.015c1.577-1.579-2.053-7.857-6.987-12.085-2.669-2.287-6.354-4.036-10.92-5.185-16.431-4.131-19.888-8.129-22.241-25.719-1.086-8.12-3.554-12.912-6.997-13.589-6.496-1.276-6.111 17.772.648 32.022 5.111 10.778 20.184 23.415 30.502 25.575 5.37 1.124 14.431.547 15.996-1.02zm178.63-2.649c12.75-6.227 24.405-20.969 27.666-34.995 1.566-6.735.909-15.474-1.332-17.717-1.469-1.471-2.016-1.438-5.655.341l-4.028 1.969-.659 10.869c-.735 12.124-1.597 13.992-9.127 19.777-2.984 2.293-6.834 3.892-12.292 5.108-4.854 1.081-9.115 2.753-10.946 4.295-2.968 2.5-8.422 10.815-8.422 12.839 0 3.701 15.26 2.171 24.796-2.487zM416.82 700.192c-18.89-3.21-50.661-16.324-67.9-28.027-21.889-14.859-39.901-35.183-51.385-57.98-4.472-8.878-6.632-19.039-4.347-20.452.627-.388 3.978.729 7.447 2.482 8.289 4.189 13.065 4.189 18.841.001 2.417-1.752 4.848-4.383 5.404-5.845 1.701-4.479 1.176-13.07-1.086-17.746-2.748-5.683-6.288-8.932-15.217-13.968-26.425-14.904-55.923-15.412-98.349-1.692-9.655 3.122-18.272 5.677-19.149 5.677-9.89 0 26.893-25.623 49.819-34.705 19.303-7.646 41.286-10.086 61.383-6.811 22.814 3.717 37.06 11.615 54.812 30.387 15.845 16.755 29.326 41.171 24.411 44.211-.576.356-3.862-.617-7.303-2.163-4.134-1.857-8.259-2.857-12.157-2.949-5.312-.124-6.166.171-8.562 2.955-2.359 2.742-2.595 3.742-2.072 8.811.661 6.413 6.434 19.268 12.898 28.717 5.426 7.933 23.131 27.581 32.758 36.354 4.255 3.877 13.193 11.303 19.864 16.502s12.634 10.271 13.253 11.271c2.457 3.974-4.34 6.502-13.362 4.968zm234.388-1.485c-2.318-2.795-.064-5.533 11.798-14.334 6.752-5.009 18.505-15.469 27.568-24.533 24.058-24.06 34.986-39.988 37.495-54.648 1.286-7.515-.091-12.6-3.724-13.754-4.621-1.468-11.887-.585-17.821 2.166-5.945 2.756-10.266 2.847-10.214.213.064-3.2 5.621-14.255 12.091-24.052 8.495-12.865 23.858-28.675 34.954-35.971 15.3-10.06 27.672-13.247 51.429-13.248 24.058-.001 38.936 3.851 62.041 16.065 16.915 8.941 33.577 20.882 33.577 24.063 0 1.816-5.319.834-21.147-3.903-23.623-7.07-32.436-8.854-47.179-9.55-18.223-.861-33.588 2.324-49.193 10.196-9.374 4.729-17.651 14.451-19.381 22.765-1.686 8.104 7.813 19.22 16.425 19.22 2.266 0 6.372-1.165 9.251-2.626 2.847-1.444 6.201-2.626 7.453-2.626 2.099 0 2.225.373 1.619 4.797-2.763 20.176-30.293 55.646-56.814 73.2-17.236 11.408-41.269 21.783-60.334 26.045-10.84 2.424-18.155 2.613-19.895.514zm-113.788-86.537c-.301-.488-1.713-6.282-3.137-12.877-5.565-25.763-17.309-54.954-27.528-68.421-5.393-7.107-9.249-11.654-30.958-36.501-25.698-29.413-33.562-41.206-39.616-59.41-3.917-11.779-5.306-21.817-4.596-33.207.566-9.088-.493-13.465-3.26-13.465-3.634 0-14.559 6.745-17.065 10.536-5.659 8.56-5.591 26.31.169 43.923 3.587 10.97 17.164 37.816 23.985 47.426 6.626 9.336 9.855 11.544 13.795 9.434 3.804-2.038 4.229-5.406 1.578-12.502-2.537-6.792-2.51-10.921.076-11.414 2.362-.45 12.226 7.862 17.593 14.826 6.045 7.843 7.226 12.429 9.072 35.214.865 10.678 2.09 21.334 2.721 23.681 2.555 9.496 8.055 17.699 22.882 34.124 20.163 22.336 21.463 24.269 16.318 24.269-8.546 0-29.358-15.046-52.78-38.156-26.609-26.255-36.673-40.963-47.918-70.026-10.663-27.56-20.77-41.805-34.626-48.802-15.435-7.795-29.904-2.837-29.904 10.247 0 7.15 4.878 13.681 14.683 19.659 8.574 5.228 10.156 7.778 5.842 9.419-4.743 1.805-21.69-4.402-59.348-21.737-31.792-14.635-54.157-22.521-84.206-29.691-54.829-13.083-112.339-13.874-183.113-2.519-13.661 2.192-17.377 2.48-18.625 1.443-2.258-1.876-1.934-3.451 1.327-6.451 4.415-4.062 9.374-6.731 21.302-11.464 32.981-13.086 76.794-18.798 133.73-17.434 45.97 1.101 59.019 3.528 107.027 19.906l28.331 9.665 16.264.008c14.685.006 16.671-.214 20.461-2.264 12.726-6.887 18.816-22.953 13.349-35.219-4.195-9.412-19.843-19.92-34.02-22.846-13.05-2.693-21.892 4.335-17.524 13.929.634 1.392 4.67 5.493 8.97 9.112 4.76 4.007 7.692 7.236 7.495 8.256-.489 2.54-8.341 3.451-19.748 2.292-22.011-2.237-49.15-10.868-76.041-24.184-19.126-9.471-36.138-16.084-51.415-19.988-17.397-4.446-59.723-3.658-88.14 1.641-7.502 1.399-21.668 4.712-31.478 7.363-18.382 4.967-28.855 6.787-28.855 5.016 0-3.037 14.218-12.46 29.972-19.865 41.434-19.474 96.501-26.934 135.657-18.38 12.983 2.836 22.869 6.414 43.053 15.579 18.934 8.598 23.783 9.61 27.621 5.768 4.527-4.531 1.33-16.116-5.78-20.947-1.845-1.254-5.715-2.823-8.601-3.487-8.17-1.88-11.147-3.258-10.804-5 1.108-5.628 15.96-8.493 34.108-6.579 23.803 2.511 46.727 11.6 72.684 28.82 13.584 9.012 16.34 9.673 20.981 5.028 3.183-3.186 3.2-4.663.179-15.519l-1.197-4.303-12.332-.636c-14.815-.765-27.719-3.854-44.037-10.545-14.635-6-21.372-9.383-50.085-25.151-35.848-19.686-57.884-29.527-92.246-41.195-18.016-6.117-25.514-7.668-41.257-8.531-14.536-.797-16.727-1.54-13.227-4.485 3.839-3.23 15.066-4.752 34.928-4.736 15.581.013 19.66.365 26.932 2.323 19.892 5.357 39.578 13.387 84.816 34.597 53.727 25.19 65.828 29.625 83.156 30.476 9.029.444 10.755.279 10.755-1.025 0-3.66-17.691-29.622-28.739-42.175-9.863-11.207-17.169-16.341-36.316-25.521-31.266-14.99-35.496-17.379-41.514-23.445-7.311-7.37-11.989-14.439-11.994-18.127-.006-3.599 1.874-3.727 10.003-.683 5.911 2.214 11.912 2.84 14.121 1.473 2.153-1.332 3.122-5.554 2.008-8.752-.584-1.678-3.045-4.466-5.468-6.196-12.449-8.887-51.556-25.809-85.725-37.094-32.571-10.758-51.634-14.552-78.159-15.557-15.905-.603-17.864-.876-18.181-2.533-1.945-10.179 81.496-11.613 131.836-2.266 23.039 4.278 50.324 11.342 67.334 17.433 24.763 8.867 53.135 29.926 65.993 48.984 6.427 9.526 11.903 21.644 12.475 27.608.434 4.526.254 5.152-1.487 5.152-1.09 0-5.746-3.145-10.347-6.989-14.135-11.81-24.19-14.831-30.808-9.256-4.282 3.606-5.935 8.805-4.34 13.644 1.441 4.369 10.042 11.929 28.16 24.748 34.35 24.304 39.496 29.256 51.581 49.626 4.326 7.293 8.4 13.469 9.053 13.725s2.825-.649 4.827-2.011c4.745-3.228 48.801-22.226 53.654-23.138 5.585-1.049 6.334-2.511 5.042-9.853-3-17.049-9.396-30.692-15.918-33.953-6.934-3.467-17.81-1.558-21.547 3.782-1.065 1.522-1.538 5.011-1.538 11.355 0 5.036-.462 9.443-1.028 9.793-2.724 1.685-16.219-9.837-22.361-19.09-8.796-13.253-12.01-28.324-8.725-40.916 3.463-13.273 1.98-20.804-8.082-41.041-5.987-12.042-11.349-20.526-16.601-26.266-4.637-5.068-4.893-6.069-1.958-7.642 4.432-2.374 10.307.781 20.455 10.987 7.626 7.67 11.04 12.226 17.738 23.677 9.742 16.654 13.904 22.65 21.063 30.347 11.77 12.654 25.969 14.079 33.859 3.397 3.621-4.903 8.257-14.678 10.588-22.325 5.262-17.267 5.714-39.556 1.644-81.002-.572-5.823-.424-7.09.83-7.09 8.835 0 18.661 37.47 19.005 72.472.164 16.709-1.1 23.337-9.018 47.264l-5.387 16.28-.043 21.705c-.024 11.938.361 22.1.855 22.582 1.338 1.307 12.578-11.398 20.133-22.756 15.48-23.274 22.187-42.248 27.132-76.759 1.359-9.484 3.206-19 4.104-21.145 2.979-7.115 9.47-6.16 12.877 1.894.755 1.784 2.134 9.11 3.064 16.28 5.428 41.831 18.224 71.601 42.397 98.637 6.166 6.896 6.531 5.697 6.089-19.956l-.371-21.531-4.351-13.16c-8.984-27.175-11.521-44.486-9.608-65.57 1.235-13.619 5.448-31.646 10.345-44.269C597.862 93.084 600.127 90 603.205 90c1.876 0 2.012.485 1.393 4.989-3.493 25.421-3.416 68.836.142 79.561 5.522 16.645 12.253 29.028 17.162 31.569 8.764 4.537 18.409 1.113 28.59-10.148 5.564-6.154 8.63-10.574 24.696-35.6 11.679-18.192 21.239-27.172 30.793-28.92 5.954-1.09 6.22 1.488.846 8.202-10.367 12.95-20.982 32.721-23.88 44.478-1.534 6.223-1.592 8.854-.487 22.368 1.766 21.614 1.758 21.698-3.003 31.553-6.222 12.879-15.286 23.318-24.298 27.982-4.537 2.348-5.326 1.148-4.521-6.876 1.282-12.779-3.729-18.952-15.391-18.96-7.866-.004-11.164 2.785-16.579 14.028-4.481 9.302-8.126 24.832-6.939 29.565.627 2.5 1.101 2.782 3.777 2.247 2.203-.441 5.2.385 10.705 2.951l24.244 10.925c9.129 4.049 18.25 8.622 20.268 10.163s3.812 2.635 3.988 2.432 3.804-6.225 8.063-13.384c10.31-17.328 21.485-29.179 39.329-41.704 18.217-12.787 35.43-26.172 39.231-30.505 4.352-4.962 4.399-11.048.123-16.171-2.846-3.41-3.418-3.632-9.181-3.569-7.326.081-13.128 2.774-24.626 11.433-11.33 8.532-13.126 7.852-9.764-3.695 8.744-30.025 43.95-60.625 84.904-73.794 30.38-9.769 68.606-17.335 99.496-19.692 18.274-1.394 64.066-.754 77.209 1.08 8.674 1.21 15.313 3.965 15.313 6.352 0 1.323-3.281 1.687-20.461 2.269-14.51.492-23.513 1.337-30.954 2.905-44.04 9.283-123.226 40.192-133.772 52.216-4.39 5.005-4.398 10.185-.021 12.451 3.615 1.871 6.37 1.465 14.851-2.189 10.397-4.479 12.191-.614 4.764 10.266-8.225 12.048-14.829 16.195-59.908 37.618-13.496 6.414-28.978 21.53-42.177 41.179-6.083 9.056-11.957 19.838-11.957 21.949 0 .88 2.853 1.072 10.231.689 16.861-.876 35.22-7.731 91.55-34.181 28.625-13.441 47.398-21.654 65.429-28.626l11.243-4.347 26.457.355c25.822.346 26.564.417 30.936 2.922 2.463 1.412 4.315 3.066 4.114 3.676s-3.16 1.221-6.577 1.359c-21.57.869-34.345 3.685-59.726 13.165-28.465 10.632-45.034 18.24-75.431 34.636-52.635 28.392-80.093 38.989-100.615 38.834-8.657-.066-9.312.085-10.898 2.507-.943 1.44-1.914 5.756-2.202 9.784-.491 6.867-.386 7.292 2.219 9.001 2.475 1.623 3.159 1.648 7.216.261 2.465-.843 9.439-4.708 15.499-8.589 26.331-16.866 50.782-25.826 75.131-27.53 10.827-.758 21.429.805 26.53 3.91 5.907 3.596 3.286 6.348-7.401 7.772-5.691.758-12.538 5.279-15.594 10.297-3.739 6.139-2.121 13.149 3.67 15.899 4.165 1.979 8.216 1.009 19.497-4.668 19.435-9.779 36.076-15.762 52.936-19.03 11.443-2.218 52.617-1.924 66.873.479 16.219 2.733 31.273 6.541 43.299 10.953 11.688 4.288 41.406 18.734 45.966 22.344 3.269 2.588 3.53 6.558.468 7.142-1.009.193-9.036-1.781-17.838-4.386-37.361-11.057-78.62-16.804-103.315-14.39-24.956 2.439-42.721 7.865-73.227 22.365-34.675 16.482-53.025 22.395-77.837 25.082-12.159 1.317-20.271.24-20.271-2.691 0-.794 3.046-3.87 6.768-6.835 12.385-9.865 14.716-14.786 9.612-20.297-5.043-5.447-13.99-5.747-26.741-.897-11.729 4.461-20.578 12.038-24.547 21.019-4.167 9.429.089 24.247 8.773 30.544 6.984 5.064 13.667 6.776 26.658 6.829l11.542.047 32.003-10.675c55.592-18.544 62.979-19.781 118.044-19.766 41.971.01 52.292.7 78.685 5.253 27.296 4.708 52.816 13.566 64.279 22.311 3.668 2.798 4.583 6.928 1.774 8.008-.9.346-10.934-.747-22.297-2.428-85.177-12.602-142.348-9.434-209.531 11.61-17.83 5.585-30.618 10.687-65.58 26.161-38.921 17.227-42.309 18.436-46.833 16.715-4.129-1.571-2.849-3.954 4.776-8.891 15.455-10.007 20.052-21.336 11.839-29.178-8.934-8.531-23.916-6.16-36.564 5.787-10.08 9.521-15.751 19.152-25.534 43.363-6.698 16.578-11.532 26.345-17.107 34.57-10.075 14.862-39.805 45.819-54.738 56.997-9.865 7.384-21.548 13.95-26.155 14.698-6.886 1.119-6.098-.128 15.479-24.471 12.409-14 19.962-25.924 22.549-35.597.615-2.301 1.617-10.801 2.226-18.888 1.526-20.273 2.796-28.069 5.468-33.574 1.259-2.594 1.913-5.081 1.455-5.527-1.305-1.269-24.467 25.259-35.974 41.202-10.459 14.491-19.936 36.737-26.176 61.443-4.993 19.769-5.448 21.006-7.733 21.006-1.075 0-2.202-.399-2.503-.886zm29.955-107.119c41.625-38.34 49.76-48.573 52.331-65.821 1.623-10.89.923-45.902-.93-46.519-2.043-.68-15.099 13.265-17.963 19.186-3.743 7.74-3.872 12.834-.555 21.939 3.032 8.32 2.882 10.135-.831 10.098-9.764-.098-26.004-16.998-31.772-33.062-1.45-4.04-1.884-8.403-1.88-18.906.006-12.024.343-14.657 2.826-22.057 3.134-9.339 8.338-18.38 10.578-18.38 1.924 0 2.665 2.148 3.765 10.914.528 4.211 1.75 8.431 2.894 10.001 4.472 6.134 18.448 9.594 23.079 5.714l2.324-1.947-3.982-5.863c-7.201-10.602-18.208-40.184-19.899-53.48l-.735-5.777-4.298-.575c-2.6-.348-5.915-1.873-8.39-3.861-5.805-4.661-17.702-17.117-26.566-27.814l-7.576-9.143-10.379 13.023c-11.301 14.18-22.946 24.709-30.397 27.484-2.597.967-5.102 2.084-5.566 2.483s-1.291 3.983-1.837 7.966c-1.841 13.432-11.944 40.113-19.359 51.123-3.389 5.032-3.545 5.591-1.905 6.796 2.262 1.662 8.818 1.686 14.267.052 8.343-2.502 13.331-10.006 13.346-20.077.015-10.012 4.344-9.793 9.526.483 9.427 18.693 9.75 44.124.776 60.978-6.037 11.338-17.956 22.397-25.451 23.614-4.987.81-5.557-1.092-2.786-9.303 2.856-8.466 2.835-15.701-.062-21.693-2.764-5.715-16.843-20.589-18.855-19.919-1.138.379-1.504 4.644-1.745 20.349-.359 23.408.655 30.609 5.739 40.746 6.707 13.372 15.271 22.706 41.784 45.536 8.079 6.957 18.664 16.733 23.522 21.724s9.175 8.943 9.595 8.783 12.736-11.319 27.369-24.797zm-30.304 11.639c-1.13-1.011-4.451-4.91-7.381-8.665-6.182-7.923-13.551-15.147-27.604-27.06-11.925-10.11-17.757-16.345-17.757-18.984 0-1.059 4.383-6.611 9.74-12.338 13.845-14.802 19.557-23.379 27.24-40.908 4.779-10.905 6.523-19.443 9.215-45.128 4.79-45.701 5.781-51.039 9.617-51.778 3.853-.743 5.115 5.271 8.223 39.175 3.675 40.097 5.357 48.273 13.061 63.491 4.771 9.425 13.488 22.296 20.586 30.396 11.038 12.596 14.591 17.097 14.591 18.484 0 .723-6.02 6.673-13.378 13.221-19.357 17.228-29.134 26.801-35.586 34.843-3.128 3.899-6.323 7.09-7.1 7.09s-2.337-.827-3.467-1.838zm102.693-20.24c8.359-8.795 27.168-44.934 31.421-60.372 2.39-8.675 3.189-22.717 1.706-30-1.477-7.256-15.144-17.752-23.15-17.779-2.499-.008-2.848.295-2.099 1.828 1.711 3.497.941 30.678-1.079 38.074-4.444 16.277-9.947 26.817-22.933 43.921-4.554 5.998-8.124 11.062-7.934 11.252s2.915-1.275 6.054-3.256c9.954-6.282 13.029-4.1 8.452 5.998-2.657 5.861-2.664 9.812-.023 12.456 3.058 3.061 5.085 2.613 9.584-2.122zm4.025-137.699c5.591-5.597 14.722-20.182 14.722-23.516 0-.334-1.574-.311-3.498.05-2.629.494-7.604-.691-20.023-4.767-9.088-2.983-16.797-5.152-17.129-4.819s1.672 4.272 4.456 8.754c11.973 19.278 15.209 24.846 15.209 26.171 0 2.404 2.839 1.555 6.264-1.873zm-199.999-1.266c.803-1.923 4.659-8.186 8.569-13.917 6.904-10.119 10.56-16.972 9.578-17.955-.264-.265-7.02 1.71-15.014 4.388s-16.776 5.138-19.517 5.467c-6.292.755-6.351 1.906-.55 10.792 5.087 7.793 11.635 14.721 13.914 14.721.858 0 2.217-1.574 3.02-3.497z" fill="#020202"/></svg>