<svg xmlns="http://www.w3.org/2000/svg" viewBox="-393 31 500 500" xmlns:v="https://vecta.io/nano"><path d="M-304.8 262.8l47 .6v21.7h8.4l.6 42.2 6.6 8.4-1.8 4.2-16.2.6-16.2-1.8-15.7.6-16.3.7s-10.8-1.2-11.5 4.2c-.6 5.4-2.4 63.9-2.4 63.9s-.6 3.6 3 7.2 17.5 3 17.5 3l27.7 1.2 9.6-3 13.2 1.8h16.2l19-.7 8.9-5.3 13.6 5.1 28.2.2 11.3-1.4 2.6-2.6s6.6 3.2 8.3 3.8 38.3 2.1 41.9.3 7.7-3.9 7.7-8.1l.6-43.4s1.8-18.2-3.5-22.3-3.3-7.2-3.3-7.2l13.9-1.8 7.2 1.7 26.2.5.7-33.4 30.3-.5.2 18.4s-1.4 5.9 2.1 9.6c3.5 3.8 10.6 5 10.6 5l17.6.2s19.6 1.2 22.9-2.4 4.5-22.7 4.5-22.7l-.9-51.2-26.3.3-3.6-6.5-26.1.2-9.5 3.2-44.3.5s-4.7.9-6.2 4.2-1.8-4.7-8.4-4.7-36.6-.2-36.6-.2-8.4.2-9.9 4.8c-1.5 4.7-11.5-4.8-11.5-4.8-13.6-.3-4.1.5-10.6.3s-5.7-8.6-5.7-8.6l1.9-8 79.8 1.4 8.1-3.5 13.2 3.3c.7 0 35.7.6 35.7.6l.5-98.5-30.3-.5-.2 18.8s-18.5-1.5-22.3 2.4-3.8 4.1-3.8 4.1-3.2-6.3-12-6.2c-8.9.2-16.1 3.2-16.1 3.2l-4.4-4.2-24 .6-1.1 4.4s-3.6-4.5-16.9-4.5c-13.2 0-32.2-.9-34.9 3.2s-2.4 4.8-2.4 4.8-1.7-5.6-7.8-6.8c-6.2-1.2-82.5-.3-82.5-.3s-13.4-2.7-16.9 1.7-4.2 1.8-4.8 7.1-.3 64.3-.3 64.3l-.1 26.6z" fill="#fff"/><path d="M-304.8 262.8v.2l46.8.6v21.7h8.5l.6 42.1 6.6 8.4-1.7 4-16.1.6-16.2-1.8-15.7.6-16.2.6v.2-.2s-1-.1-2.5-.1c-1.6 0-3.8.1-5.6.8-.9.3-1.7.7-2.4 1.3-.6.6-1.1 1.4-1.2 2.4-.2 1.4-.4 6-.6 12.3l-1.8 51.6h.2-.2v.7c0 1.2.4 4 3.1 6.7h0c.7.7 1.8 1.2 3 1.7 3.7 1.2 9.2 1.4 12.3 1.4h2.3v-.2.2l27.7 1.2 9.6-3 13.2 1.8h16.3l19-.7 8.8-5.3 13.5 5.1 28.2.2 11.4-1.4 2.6-2.6-.1-.1-.1.1 3.5 1.7c1.9.9 3.9 1.8 4.8 2.1l.1-.2-.1.2c.1 0 .2.1.4.1.7.1 2.1.2 4 .3 5.7.4 16 .7 24.3.7 3.3 0 6.2-.1 8.6-.2a75.39 75.39 0 0 0 3-.3c.8-.1 1.4-.2 1.7-.4h0c1.8-.9 3.7-1.9 5.2-3.2s2.5-2.9 2.5-5.1l.3-23.3.2-13.9c0-1.9.1-3.4.1-4.5v-1.7h-.2.2s.3-3 .3-6.9c0-2.8-.2-6.1-.7-8.9-.3-1.4-.7-2.8-1.2-3.9s-1.1-2.1-2-2.7c-3-2.3-3.6-4.3-3.6-5.5 0-.5.1-.8.2-1.1 0-.1.1-.2.1-.3v-.1h0 0l-.1-.1v.2L-86 335l7.2 1.6 26.4.5.7-33.4 29.9-.4.2 18.2h.2-.2s-.3 1.2-.3 2.8c0 2 .4 4.9 2.4 7h0c1.8 1.9 4.4 3.2 6.6 3.9 2.2.8 4 1.1 4 1.1h0l17.6.2v-.2.2s3.1.2 7.1.2c3 0 6.4-.1 9.4-.5 1.5-.2 2.8-.4 4-.8 1.1-.3 2-.8 2.5-1.4h0c.9-1 1.6-2.8 2.1-5.1 1.7-6.9 2.4-17.7 2.4-17.7h0l-.9-51.4-26.4.3-3.6-6.5-26.2.2-9.5 3.2-44.3.5h0s-1.2.2-2.6.9c-1.4.6-3 1.7-3.7 3.4-.1.3-.2.5-.3.6s-.2.1-.2.1h-.1l-.4-.4c-.2-.3-.5-.8-.9-1.3-.5-.8-1.3-1.7-2.3-2.5-1-.7-2.3-1.3-4.1-1.3-3.3 0-12.5 0-20.8-.1-4.2 0-8.1 0-11-.1h-3.5-1.3 0 0s-2.1 0-4.4.7c-1.2.3-2.4.8-3.4 1.5s-1.9 1.6-2.2 2.8h0c-.1.4-.4.7-.6.9a1.69 1.69 0 0 1-1 .3c-.8 0-1.8-.4-2.8-.9a31.25 31.25 0 0 1-4.6-3.2c-.6-.5-1.2-1-1.6-1.4l-.4-.4c-.1-.1-.2-.1-.2-.1h0-.1c-2.3 0-3.9-.1-5-.1-1.3 0-2.1 0-2.5.1-.2 0-.3 0-.4.1l-.1.1-.1.1v.1h0 .1-.1 0 .1-.1.1l-.1-.1v.1h.1l-.1-.1.1.1-.1-.1h0l.1.1-.1-.1h0 0 0 0 0-.2-.8-1.5c-1.3 0-2.3-.4-3-1-1.1-.8-1.8-2.1-2.1-3.4-.4-1.3-.4-2.5-.4-3.3v-.6-.2-.1h-.2.2l1.9-7.9 79.7 1.4 8.2-3.5-.1-.1v.2l6.3 1.7 4.5 1.1c.6.2 1.2.3 1.6.4.2 0 .4.1.5.1h.3c.4 0 9.3.2 18.1.3l17.6.3h.2l.5-98.8-30.6-.5-.2 19h.2v-.2s-3.5-.3-7.9-.3c-2.8 0-5.9.1-8.5.5a27.81 27.81 0 0 0-3.6.8c-1 .4-1.9.8-2.4 1.4h0 0l-3.3 3.5c-.2.3-.4.4-.4.5l-.1.1h0v.1h.2l.1-.1s-.8-1.6-2.7-3.1c-1.9-1.6-4.9-3.1-9.2-3.1h-.3 0c-8.9.2-16.2 3.2-16.2 3.2l.1.1.1-.1-4.4-4.3-24.1.6-1.1 4.5h.2l.1-.1s-3.7-4.6-17-4.6c-4.1 0-8.7-.1-13.2-.1-5.1 0-10.1.1-14 .6-2 .2-3.7.6-5 1s-2.3 1-2.8 1.8h0c-1.1 1.7-1.7 2.8-2 3.5s-.4 1.1-.4 1.3v.2l.3-.1s-.4-1.4-1.6-3-3.2-3.3-6.3-3.9c-.6-.1-1.9-.2-3.8-.3-5.6-.2-16.1-.3-27.7-.3l-51 .3v.2-.2s-4.1-.8-8.4-.8c-1.7 0-3.5.1-5 .5s-2.8 1-3.6 2c-.9 1.1-1.5 1.7-2.1 2.2l-1.1.8c-.4.3-.8.6-1.1 1.2s-.4 1.5-.6 3c-.1.7-.1 2.1-.2 4.1l-.2 28.8.1 31.4h.2-.2l-.3 27h.2v-.2h.2l.3-26.8h0v-.7l-.1-30.7.1-21.1.1-7.7c0-2 .1-3.5.2-4.1.2-1.3.3-2.1.5-2.7.2-.4.3-.7.5-.9.3-.3.8-.6 1.4-1a17.61 17.61 0 0 0 2.4-2.4c.7-.9 2-1.5 3.4-1.9 1.5-.4 3.2-.5 4.9-.5 2.1 0 4.2.2 5.8.4.8.1 1.4.2 1.9.3.2 0 .4.1.5.1h.2 0 0 1.2l49.8-.3 20.6.1a133.03 133.03 0 0 1 7.1.2c1.9.1 3.2.2 3.8.3 3 .6 5 2.3 6.1 3.8.6.8 1 1.5 1.2 2 .1.3.2.5.3.6l.1.2v.1h.2l.1-.1h-.1.1 0-.1.1 0 0 0 0 0 0c0-.1 0-.5.4-1.2.3-.7.9-1.8 2-3.5h0 0c.4-.7 1.3-1.2 2.7-1.6 2-.6 4.8-1 8.1-1.3 3.3-.2 7-.3 10.8-.3l13.2.1c6.6 0 10.8 1.1 13.3 2.3a18.72 18.72 0 0 1 2.7 1.5c.3.2.5.4.6.5l.1.1h0 0l.2.3 1.1-4.6 23.8-.6 4.4 4.2h.1.1c.8-.3 7.7-3 16-3.1h0 .3c4.3 0 7.2 1.5 9 3.1.9.8 1.6 1.5 2 2.1.2.3.4.5.5.7l.1.2h0 0l.3-.1h-.2l.1.1v-.1h-.2l.1.1h-.1.1 0-.1.1s0-.1.1-.2c.3-.3 1.1-1.3 3.6-3.9h0c.5-.5 1.3-1 2.3-1.3 3-1.1 7.9-1.3 12-1.3 2.1 0 4.1.1 5.5.1.7 0 1.3.1 1.7.1h.6.2l.2-18.9 29.9.4-.5 98.3h.2v-.2l-35.7-.6h-.2c-1-.2-4.2-1-7.2-1.8-1.5-.4-2.9-.8-4-1-.5-.1-1-.3-1.3-.3-.3-.1-.5-.1-.5-.1h-.1l-8.1 3.5-79.9-1.4-2 8.1h0v.8c0 1.1.1 3 .9 4.7.4.9 1 1.7 1.8 2.3s1.9 1 3.2 1h1.5.9l.2-.1.1-.1v-.1-.1h0-.1.1 0-.1.1-.1l.1.1v-.1h-.1l.1.1h0v.1h0 0v.1h0 .2c.3 0 1-.1 2.6-.1 1.2 0 2.8 0 5 .1v-.2l-.1.1s1.6 1.5 3.6 3.1c1 .8 2.1 1.5 3.2 2.1s2.1 1 3 1c.4 0 .8-.1 1.2-.3.3-.2.6-.6.7-1.1h0c.4-1.1 1.1-2 2.1-2.6 1.5-1 3.4-1.5 4.9-1.8.8-.1 1.5-.2 1.9-.2h.6.2v-.2.2l36.6.2c1.3 0 2.4.3 3.3.8 1.3.7 2.2 1.9 2.8 2.8.3.5.6.9.8 1.2a.78.78 0 0 0 .4.4.76.76 0 0 0 .4.2c.2 0 .3-.1.5-.2.1-.1.3-.4.4-.7.7-1.6 2.2-2.6 3.6-3.3.7-.3 1.3-.5 1.7-.7.2-.1.4-.1.5-.1h.1 0v-.2.2l44.3-.5 9.5-3.2 25.9-.2 3.6 6.5 26.3-.3.9 51h.2-.2s0 .3-.1.8a108.58 108.58 0 0 1-1.3 11.1c-.4 2.3-.8 4.6-1.3 6.5s-1.2 3.4-1.8 4.2h0c-.5.5-1.3.9-2.4 1.3-3.3 1-8.8 1.3-13.3 1.3-2 0-3.8 0-5-.1-.6 0-1.2 0-1.5-.1h-.5 0l-17.6-.2v.2-.2s-.1 0-.3-.1c-.7-.1-2.5-.6-4.5-1.3-2-.8-4.2-1.9-5.7-3.5h0c-1.9-2.1-2.3-4.8-2.3-6.8 0-.8.1-1.5.1-1.9 0-.2.1-.4.1-.6v-.1h0 0l-.2-18.6-30.6.5-.7 33.4-26-.5-7.2-1.7-14 1.8v.1s-.4.6-.4 1.6c0 1.4.7 3.4 3.7 5.8.8.6 1.4 1.5 1.9 2.6 1.5 3.3 1.8 8.5 1.8 12.7 0 1.9-.1 3.6-.1 4.9 0 .6-.1 1.1-.1 1.5v.5h0 0l-.6 43.4c0 2-1 3.6-2.4 4.8-1.4 1.3-3.3 2.2-5.2 3.1h0c-.3.1-.9.3-1.6.4-2.3.3-6.6.5-11.5.5-6 0-12.9-.2-18.4-.4-2.8-.1-5.2-.3-7-.4-.9-.1-1.6-.1-2.2-.2-.3 0-.5-.1-.7-.1s-.3-.1-.3-.1h0c-.8-.3-2.9-1.2-4.7-2.1-.9-.4-1.8-.8-2.5-1.2-.6-.3-1.1-.5-1.1-.5h-.1l-2.6 2.6-11.2 1.4-28.1-.2-13.6-5.1-8.9 5.3-18.9.7h-16.2l-13.3-1.8-9.7 3-27.7-1.2h0-.6-1.7c-2 0-5.2-.1-8.1-.5-1.5-.2-2.9-.5-4.1-.9s-2.2-.9-2.9-1.6h0c-2.7-2.6-3-5.3-3-6.5v-.5-.1h0 0 0 0v-.7l1-32.1.7-20c.2-5.7.4-9.8.6-11.1.1-.9.5-1.6 1.1-2.2.9-.8 2.2-1.4 3.6-1.6 1.4-.3 2.9-.4 4.1-.4.7 0 1.3 0 1.8.1h.5.2 0l16.3-.6 15.7-.6 16.2 1.8 16.4-.6 1.9-4.4-6.7-8.5-.6-42.3h-8.4v-21.7l-47.1-.6.4.3h.2-.2z"/><path d="M-28.2 147.8l-.5 89.5h-39.1c-7.7 0-11.2-2.8-11.2-8.5l.3-54c0-5.8 3.8-8.7 11.2-8.7h16.7l.2-18.4 22.4.1m-27.9 70h5.3v-34.4h-5.3c-.1 0-.2.1-.2.2v34c0 .1.1.3.2.2m-39-51.6c7.4 0 11.2 2.9 11.2 8.7l-.3 62.4h-22.4l.3-53.7c0-.1-.1-.2-.2-.2h-5c-.1 0-.2.1-.2.2l-.3 53.7h-22.4l.3-71.2h22.4v4.4c3.7-2.9 9.3-4.3 16.6-4.3m-55.7 0c7.4 0 11.2 2.9 11.2 8.7l-.3 62.4H-179c-7.4 0-11.2-2.8-11.2-8.5l.2-28.4c0-5.7 3.8-8.5 11.2-8.5h16.8v-8.4c0-.1-.1-.2-.2-.2h-5c-.1 0-.2.1-.2.2v4h-22.4v-12.7c0-5.8 3.8-8.7 11.2-8.7l27.8.1m-16.8 54.1h5.1v-10.6h-5.1c-.1 0-.2.1-.2.2v10.2c0 .1.1.2.2.2m-38.7-54.1c7.4 0 11.1 2.9 11.1 8.7v20c0 3.3-1.8 5.2-5.5 5.6 3.8.6 5.6 2.4 5.6 5.7l-.2 36.2c0 .1.1.2.2.2l27.9.3v16.8h-.2v.7h16.7c7.4 0 11.2 2.9 11.2 8.7v63h-22.3l-.1-54.3c0-.1-.1-.2-.2-.2h-5.3l.1 54.5h-22.2l-.2-72.5-16.8-.1c-7.5 0-11.3-2.8-11.3-8.4l.3-40.8c0-.1-.1-.2-.2-.2h-5.3v35.7h-22.4l.1-79.7h39m-16.7 27.6h5.3c.1 0 .2-.1.2-.2v-9.9c0-.1-.1-.2-.2-.2h-5.3v10.3m-28-27.5l-.4 85.1c0 5.7-3.8 8.5-11.2 8.5h-38.8v-17.1h27.5c.1 0 .2-.1.2-.2v-4.1h-16.6c-7.4 0-11.2-2.8-11.2-8.5l.2-55c0-5.8 3.8-8.7 11.2-8.7h39.1m-22.4 17.2h-5.3c-.1 0-.2.1-.2.2l-.2 36.5c0 .1.1.2.2.2h5.3l.2-36.9m50.3 67.3v14.2h27.9v17h-27.9v32.5c0 .1.1.2.2.2h5.4c.1 0 .2-.1.2-.2l-.3-28.1h22.3l-.4 37.4c0 5.7-3.8 8.5-11.1 8.5h-27.7c-7.4 0-11.1-2.8-11.1-8.5v-41.8l-8 .2V265l8-.2v-14.2h22.5m226.9 7l.3 7.1h28v17h-28l-.3 32.7 5.6.2c.1 0 .2-.2.2-.2v-28.3H32v37.4c0 5.7-3.8 8.5-11.2 8.5h-28c-7.4 0-11.2-2.8-11.2-8.5v-41.8h-5.5v-17h5.5l-.2-7.1H3.8m-32 2.7v17.3l-28 .1c-.1 0-.2.1-.2.2v4l28-.1v17.3h-28v33h-22.4l.1-63c0-5.7 3.8-8.7 11.2-8.7l39.3-.1m-67 .2c7.4 0 11.2 2.9 11.2 8.7l-.1 36.7h-27.8v8.4c0 .1.1.2.2.2h5c.1 0 .2-.1.2-.2v-4.1h22.3v13.5c0 5.7-3.8 8.5-11.1 8.5H-123c-7.4 0-11.1-2.8-11.1-8.5l-.1-54.5c0-5.8 3.8-8.7 11.2-8.7h27.8m-16.7 27h5.5v-9.6c0-.1-.1-.2-.2-.2h-5c-.1 0-.2.1-.2.2l-.1 9.6m-68.6 52.6l-.2 7.6h27.9v17h-27.9l-.2 32.2c0 .1.1.2.2.2h5.2c.1 0 .2-.1.2-.2l.2-27.7h22.3l-.1 36.6c0 5.7-3.8 8.5-11.2 8.5H-192c-7.4 0-11.2-2.8-11.2-8.5l.2-41h-5.5v-17h5.5l.2-7.6 22.3-.1m72.1 3.2c7.4 0 11.2 2.9 11.2 8.7l-.1 53.7c0 5.7-3.8 8.5-11.2 8.5h-27.9c-7.4 0-11.2-2.8-11.2-8.5l.1-53.7c0-5.8 3.8-8.7 11.2-8.7h27.9m-16.6 53.8h5c.1 0 .2-.1.2-.2l.1-36.2c0-.1-.1-.2-.2-.2h-5c-.1 0-.2.1-.2.2l-.1 36.2c-.1.1 0 .2.2.2m-86.9-53.8l-.2 62.4c0 5.7-3.8 8.5-11.2 8.5h-27.9c-7.4 0-11.2-2.8-11.2-8.5l.2-62.4h22.4l-.2 53.6c0 .1.1.2.2.2h5c.1 0 .2-.1.2-.2l.2-53.6h22.5m-66.8 0c7.4 0 11.2 2.9 11.2 8.7l-.2 62.2h-39.1c-7.4 0-11.2-2.8-11.2-8.5l.2-28.1c0-5.7 3.8-8.5 11.2-8.5h16.7v-8.4c0-.1-.1-.2-.2-.2h-5c-.1 0-.2.1-.2.2v4h-22.5V352c0-5.8 3.8-8.7 11.2-8.7h27.9m-11 43.3h-5.4c-.1 0-.2.1-.2.2l-.2 10.7c0 .1.1.2.2.2h5.4l.2-11.1m269.1-246.2h-7.6-22.4-7.4l-.1 7.4-.1 10.9h-9.3c-5.4 0-9.8 1.3-13 3.8-.3.2-.6.5-.8.7-.3-.3-.6-.5-.8-.7-3.2-2.5-7.6-3.8-13-3.8-3.3 0-6.4.3-9.2.8v-.8h-7.5-22.4-7.5v1.6c-2.6-1.1-5.7-1.6-9.2-1.6h-27.9c-5.4 0-9.8 1.3-13 3.8-.3.2-.6.5-.9.7-.3-.3-.6-.5-.8-.7-3.2-2.6-7.5-3.8-13-3.8h-37.2-7.3-39.1c-5.4 0-9.8 1.3-13 3.8-2.6 2-5.7 5.8-5.7 12.5l-.2 54.9c0 2 .3 3.8.8 5.3h-.8v7.5 17.1 7.5h7.5 38.9 1.5v14.9 7.7l7.7-.2h.3v34.1c0 6.3 2.9 10.1 5.4 12.1h-14.6-7.5v1.6c-2.6-1-5.6-1.6-9.1-1.6h-27.7c-5.4 0-9.8 1.3-13 3.8-2.6 2-5.7 5.8-5.7 12.5v12.7 7.5h.8c-.5 1.6-.8 3.3-.8 5.4l-.2 28h0 0c0 6.6 3.1 10.4 5.8 12.4 3.2 2.4 7.4 3.6 12.9 3.6h39.1 7.5v-1.5c2.6 1 5.6 1.5 9.1 1.5h27.9c5.4 0 9.7-1.2 12.9-3.6.9-.7 1.8-1.6 2.7-2.7.9 1.1 1.8 2 2.7 2.7 3.2 2.4 7.4 3.6 12.9 3.6h27.9c5.4 0 9.7-1.2 12.9-3.6.3-.2.6-.5.9-.7.3.3.6.5.9.7 3.2 2.4 7.4 3.6 12.9 3.6h27.9c5.4 0 9.7-1.2 12.9-3.6 2.7-2 5.8-5.8 5.8-12.4l.1-53.7c0-6.5-3-10.3-5.6-12.4h.1c3.5 0 6.4-.5 8.9-1.5v1.5h7.5 22.4 7.5v-7.5-25.5h20.4 2.5v16.7c0 6.6 3.2 10.4 5.8 12.4 3.2 2.4 7.5 3.6 12.9 3.6h28c5.5 0 9.7-1.2 12.9-3.6 2.7-2 5.8-5.8 5.8-12.4v-34.2-7.5-17-7.5H32 11.3l-.3-7.1H3.7-18.7h-7.7l.1 2.7h-2l-39.3.2c-6.3 0-10.8 1.8-13.8 4.5-.3-.3-.6-.5-.8-.7-3.2-2.5-7.6-3.8-13-3.8h-27.9c-5.4 0-9.8 1.3-13 3.8-.3.2-.6.5-.8.7-.3-.3-.6-.5-.8-.7-3.2-2.5-7.6-3.8-13-3.8h-9v-8.1h17.7 7.5 22.4 7.5 20.4 7.5v-1.4c2.5.9 5.5 1.4 9 1.4h39 7.5v-7.5l.5-89.5.1-7.5h0z"/></svg>