<?xml version="1.0" encoding="utf-8"?>
<!-- Generator: Adobe Illustrator 19.0.0, SVG Export Plug-In . SVG Version: 6.00 Build 0)  -->
<svg version="1.1" id="Layer_1" xmlns="http://www.w3.org/2000/svg" xmlns:xlink="http://www.w3.org/1999/xlink" x="0px" y="0px"
	 viewBox="-393 31 500 500" style="enable-background:new -393 31 500 500;" xml:space="preserve">
<style type="text/css">
	.st0{fill:#FFFFFF;}
</style>
<g id="XMLID_40_">
	<path id="XMLID_42_" class="st0" d="M-304.8,262.8l47,0.6v21.7h8.4l0.6,42.2l6.6,8.4l-1.8,4.2l-16.2,0.6l-16.2-1.8l-15.7,0.6
		l-16.3,0.7c0,0-10.8-1.2-11.5,4.2c-0.6,5.4-2.4,63.9-2.4,63.9s-0.6,3.6,3,7.2c3.6,3.6,17.5,3,17.5,3l27.7,1.2l9.6-3l13.2,1.8h16.2
		l19-0.7l8.9-5.3l13.6,5.1l28.2,0.2l11.3-1.4l2.6-2.6c0,0,6.6,3.2,8.3,3.8c1.7,0.6,38.3,2.1,41.9,0.3c3.6-1.8,7.7-3.9,7.7-8.1
		s0.6-43.4,0.6-43.4s1.8-18.2-3.5-22.3c-5.3-4.1-3.3-7.2-3.3-7.2l13.9-1.8l7.2,1.7l26.2,0.5l0.7-33.4l30.3-0.5l0.2,18.4
		c0,0-1.4,5.9,2.1,9.6c3.5,3.8,10.6,5,10.6,5L9,336.4c0,0,19.6,1.2,22.9-2.4s4.5-22.7,4.5-22.7l-0.9-51.2l-26.3,0.3l-3.6-6.5
		l-26.1,0.2l-9.5,3.2l-44.3,0.5c0,0-4.7,0.9-6.2,4.2c-1.5,3.3-1.8-4.7-8.4-4.7s-36.6-0.2-36.6-0.2s-8.4,0.2-9.9,4.8
		c-1.5,4.7-11.5-4.8-11.5-4.8c-13.6-0.3-4.1,0.5-10.6,0.3s-5.7-8.6-5.7-8.6l1.9-8l79.8,1.4l8.1-3.5c0,0,12.5,3.3,13.2,3.3
		s35.7,0.6,35.7,0.6l0.5-98.5l-30.3-0.5l-0.2,18.8c0,0-18.5-1.5-22.3,2.4s-3.8,4.1-3.8,4.1s-3.2-6.3-12-6.2
		c-8.9,0.2-16.1,3.2-16.1,3.2l-4.4-4.2l-24,0.6l-1.1,4.4c0,0-3.6-4.5-16.9-4.5c-13.2,0-32.2-0.9-34.9,3.2c-2.7,4.1-2.4,4.8-2.4,4.8
		s-1.7-5.6-7.8-6.8c-6.2-1.2-82.5-0.3-82.5-0.3s-13.4-2.7-16.9,1.7s-4.2,1.8-4.8,7.1s-0.3,64.3-0.3,64.3L-304.8,262.8z"/>
	<path id="XMLID_46_" d="M-304.8,262.8v0.2l46.8,0.6v21.7h8.5l0.6,42.1l6.6,8.4l-1.7,4l-16.1,0.6l-16.2-1.8l-15.7,0.6l-16.2,0.6v0.2
		v-0.2c0,0-1-0.1-2.5-0.1c-1.6,0-3.8,0.1-5.6,0.8c-0.9,0.3-1.7,0.7-2.4,1.3c-0.6,0.6-1.1,1.4-1.2,2.4c-0.2,1.4-0.4,6-0.6,12.3
		c-0.8,18.7-1.8,51.6-1.8,51.6h0.2h-0.2c0,0,0,0.2,0,0.7c0,1.2,0.4,4,3.1,6.7l0,0c0.7,0.7,1.8,1.2,3,1.7c3.7,1.2,9.2,1.4,12.3,1.4
		c1.4,0,2.3,0,2.3,0v-0.2v0.2l27.7,1.2l9.6-3l13.2,1.8h16.3l19-0.7l8.8-5.3l13.5,5.1l28.2,0.2l11.4-1.4l2.6-2.6l-0.1-0.1l-0.1,0.1
		c0,0,1.7,0.8,3.5,1.7c1.9,0.9,3.9,1.8,4.8,2.1l0.1-0.2l-0.1,0.2c0.1,0,0.2,0.1,0.4,0.1c0.7,0.1,2.1,0.2,4,0.3
		c5.7,0.4,16,0.7,24.3,0.7c3.3,0,6.2-0.1,8.6-0.2c1.2-0.1,2.2-0.2,3-0.3c0.8-0.1,1.4-0.2,1.7-0.4l0,0c1.8-0.9,3.7-1.9,5.2-3.2
		c1.5-1.3,2.5-2.9,2.5-5.1c0-2.1,0.2-12.9,0.3-23.3c0.1-5.2,0.2-10.2,0.2-13.9c0-1.9,0.1-3.4,0.1-4.5s0-1.7,0-1.7h-0.2h0.2
		c0,0,0.3-3,0.3-6.9c0-2.8-0.2-6.1-0.7-8.9c-0.3-1.4-0.7-2.8-1.2-3.9s-1.1-2.1-2-2.7c-3-2.3-3.6-4.3-3.6-5.5c0-0.5,0.1-0.8,0.2-1.1
		c0-0.1,0.1-0.2,0.1-0.3v-0.1l0,0l0,0l-0.1-0.1v0.2L-86,335l7.2,1.6l26.4,0.5l0.7-33.4l29.9-0.4l0.2,18.2h0.2h-0.2
		c0,0-0.3,1.2-0.3,2.8c0,2,0.4,4.9,2.4,7l0,0c1.8,1.9,4.4,3.2,6.6,3.9c2.2,0.8,4,1.1,4,1.1l0,0l17.6,0.2v-0.2v0.2
		c0,0,3.1,0.2,7.1,0.2c3,0,6.4-0.1,9.4-0.5c1.5-0.2,2.8-0.4,4-0.8c1.1-0.3,2-0.8,2.5-1.4l0,0c0.9-1,1.6-2.8,2.1-5.1
		c1.7-6.9,2.4-17.7,2.4-17.7l0,0l-0.9-51.4l-26.4,0.3l-3.6-6.5l-26.2,0.2l-9.5,3.2l-44.3,0.5l0,0c0,0-1.2,0.2-2.6,0.9
		c-1.4,0.6-3,1.7-3.7,3.4c-0.1,0.3-0.2,0.5-0.3,0.6c-0.1,0.1-0.2,0.1-0.2,0.1h-0.1c-0.1-0.1-0.2-0.2-0.4-0.4
		c-0.2-0.3-0.5-0.8-0.9-1.3c-0.5-0.8-1.3-1.7-2.3-2.5c-1-0.7-2.3-1.3-4.1-1.3c-3.3,0-12.5,0-20.8-0.1c-4.2,0-8.1,0-11-0.1
		c-1.5,0-2.7,0-3.5,0s-1.3,0-1.3,0l0,0l0,0c0,0-2.1,0-4.4,0.7c-1.2,0.3-2.4,0.8-3.4,1.5s-1.9,1.6-2.2,2.8l0,0
		c-0.1,0.4-0.4,0.7-0.6,0.9c-0.3,0.2-0.6,0.3-1,0.3c-0.8,0-1.8-0.4-2.8-0.9c-1.6-0.9-3.3-2.1-4.6-3.2c-0.6-0.5-1.2-1-1.6-1.4
		c-0.2-0.2-0.3-0.3-0.4-0.4c-0.1-0.1-0.2-0.1-0.2-0.1l0,0h-0.1c-2.3,0-3.9-0.1-5-0.1c-1.3,0-2.1,0-2.5,0.1c-0.2,0-0.3,0-0.4,0.1
		l-0.1,0.1l-0.1,0.1v0.1l0,0h0.1h-0.1l0,0h0.1h-0.1h0.1l-0.1-0.1v0.1h0.1l-0.1-0.1l0.1,0.1l-0.1-0.1l0,0l0.1,0.1l-0.1-0.1l0,0l0,0
		l0,0l0,0l0,0c0,0-0.1,0-0.2,0c-0.2,0-0.4,0-0.8,0c-0.4,0-0.9,0-1.5,0c-1.3,0-2.3-0.4-3-1c-1.1-0.8-1.8-2.1-2.1-3.4
		c-0.4-1.3-0.4-2.5-0.4-3.3c0-0.2,0-0.4,0-0.6v-0.2v-0.1h-0.2h0.2l1.9-7.9l79.7,1.4l8.2-3.5l-0.1-0.1v0.2c0,0,3.1,0.8,6.3,1.7
		c1.6,0.4,3.2,0.8,4.5,1.1c0.6,0.2,1.2,0.3,1.6,0.4c0.2,0,0.4,0.1,0.5,0.1s0.2,0,0.3,0c0.4,0,9.3,0.2,18.1,0.3
		c8.8,0.2,17.6,0.3,17.6,0.3h0.2l0.5-98.8l-30.6-0.5l-0.2,19h0.2v-0.2c0,0-3.5-0.3-7.9-0.3c-2.8,0-5.9,0.1-8.5,0.5
		c-1.3,0.2-2.6,0.5-3.6,0.8c-1,0.4-1.9,0.8-2.4,1.4l0,0l0,0c-1.9,2-2.8,3-3.3,3.5c-0.2,0.3-0.4,0.4-0.4,0.5l-0.1,0.1l0,0v0.1h0.2
		l0.1-0.1c0,0-0.8-1.6-2.7-3.1c-1.9-1.6-4.9-3.1-9.2-3.1c-0.1,0-0.2,0-0.3,0l0,0c-8.9,0.2-16.2,3.2-16.2,3.2l0.1,0.1l0.1-0.1
		l-4.4-4.3l-24.1,0.6l-1.1,4.5h0.2l0.1-0.1c0,0-3.7-4.6-17-4.6c-4.1,0-8.7-0.1-13.2-0.1c-5.1,0-10.1,0.1-14,0.6c-2,0.2-3.7,0.6-5,1
		s-2.3,1-2.8,1.8l0,0c-1.1,1.7-1.7,2.8-2,3.5s-0.4,1.1-0.4,1.3c0,0.1,0,0.1,0,0.2l0.3-0.1c0,0-0.4-1.4-1.6-3
		c-1.2-1.6-3.2-3.3-6.3-3.9c-0.6-0.1-1.9-0.2-3.8-0.3c-5.6-0.2-16.1-0.3-27.7-0.3c-23.4,0-51,0.3-51,0.3v0.2v-0.2
		c0,0-4.1-0.8-8.4-0.8c-1.7,0-3.5,0.1-5,0.5s-2.8,1-3.6,2c-0.9,1.1-1.5,1.7-2.1,2.2c-0.4,0.3-0.8,0.6-1.1,0.8
		c-0.4,0.3-0.8,0.6-1.1,1.2c-0.3,0.6-0.4,1.5-0.6,3c-0.1,0.7-0.1,2.1-0.2,4.1c-0.1,6.1-0.2,17.5-0.2,28.8c0,15.8,0.1,31.4,0.1,31.4
		h0.2h-0.2l-0.3,27h0.2V262.8h0.2l0.3-26.8l0,0c0,0,0-0.2,0-0.7c0-3.2-0.1-16.8-0.1-30.7c0-7.5,0-15.1,0.1-21.1c0-3,0.1-5.6,0.1-7.7
		c0-2,0.1-3.5,0.2-4.1c0.2-1.3,0.3-2.1,0.5-2.7c0.2-0.4,0.3-0.7,0.5-0.9c0.3-0.3,0.8-0.6,1.4-1c0.6-0.5,1.4-1.2,2.4-2.4
		c0.7-0.9,2-1.5,3.4-1.9c1.5-0.4,3.2-0.5,4.9-0.5c2.1,0,4.2,0.2,5.8,0.4c0.8,0.1,1.4,0.2,1.9,0.3c0.2,0,0.4,0.1,0.5,0.1
		c0.1,0,0.2,0,0.2,0l0,0l0,0c0,0,0.4,0,1.2,0c5.6-0.1,29.4-0.3,49.8-0.3c7.7,0,15,0,20.6,0.1c2.8,0,5.2,0.1,7.1,0.2
		c1.9,0.1,3.2,0.2,3.8,0.3c3,0.6,5,2.3,6.1,3.8c0.6,0.8,1,1.5,1.2,2c0.1,0.3,0.2,0.5,0.3,0.6l0.1,0.2v0.1h0.2l0.1-0.1h-0.1h0.1l0,0
		h-0.1h0.1l0,0l0,0l0,0l0,0l0,0l0,0c0-0.1,0-0.5,0.4-1.2c0.3-0.7,0.9-1.8,2-3.5l0,0l0,0c0.4-0.7,1.3-1.2,2.7-1.6
		c2-0.6,4.8-1,8.1-1.3c3.3-0.2,7-0.3,10.8-0.3c4.5,0,9.1,0.1,13.2,0.1c6.6,0,10.8,1.1,13.3,2.3c1.3,0.6,2.1,1.1,2.7,1.5
		c0.3,0.2,0.5,0.4,0.6,0.5l0.1,0.1l0,0l0,0l0.2,0.3l1.1-4.6l23.8-0.6l4.4,4.2h0.1h0.1c0.8-0.3,7.7-3,16-3.1l0,0h0.3
		c4.3,0,7.2,1.5,9,3.1c0.9,0.8,1.6,1.5,2,2.1c0.2,0.3,0.4,0.5,0.5,0.7l0.1,0.2l0,0l0,0l0.3-0.1h-0.2l0.1,0.1v-0.1h-0.2l0.1,0.1h-0.1
		h0.1l0,0h-0.1h0.1c0,0,0-0.1,0.1-0.2c0.3-0.3,1.1-1.3,3.6-3.9l0,0c0.5-0.5,1.3-1,2.3-1.3c3-1.1,7.9-1.3,12-1.3
		c2.1,0,4.1,0.1,5.5,0.1c0.7,0,1.3,0.1,1.7,0.1c0.4,0,0.6,0,0.6,0h0.2l0.2-18.9l29.9,0.4l-0.5,98.3h0.2V242c0,0-35-0.6-35.7-0.6
		c0,0-0.1,0-0.2,0c-1-0.2-4.2-1-7.2-1.8c-1.5-0.4-2.9-0.8-4-1c-0.5-0.1-1-0.3-1.3-0.3c-0.3-0.1-0.5-0.1-0.5-0.1h-0.1l-8.1,3.5
		l-79.9-1.4l-2,8.1l0,0c0,0,0,0.3,0,0.8c0,1.1,0.1,3,0.9,4.7c0.4,0.9,1,1.7,1.8,2.3s1.9,1,3.2,1c0.6,0,1.1,0,1.5,0
		c0.5,0,0.8,0,0.9,0l0.2-0.1l0.1-0.1v-0.1v-0.1l0,0h-0.1h0.1l0,0h-0.1h0.1h-0.1l0.1,0.1v-0.1h-0.1l0.1,0.1l0,0v0.1l0,0l0,0v0.1l0,0
		c0,0,0.1,0,0.2,0c0.3,0,1-0.1,2.6-0.1c1.2,0,2.8,0,5,0.1v-0.2l-0.1,0.1c0,0,1.6,1.5,3.6,3.1c1,0.8,2.1,1.5,3.2,2.1
		c1.1,0.6,2.1,1,3,1c0.4,0,0.8-0.1,1.2-0.3c0.3-0.2,0.6-0.6,0.7-1.1l0,0c0.4-1.1,1.1-2,2.1-2.6c1.5-1,3.4-1.5,4.9-1.8
		c0.8-0.1,1.5-0.2,1.9-0.2c0.2,0,0.4,0,0.6,0c0.1,0,0.2,0,0.2,0V257v0.2c0,0,29.9,0.2,36.6,0.2c1.3,0,2.4,0.3,3.3,0.8
		c1.3,0.7,2.2,1.9,2.8,2.8c0.3,0.5,0.6,0.9,0.8,1.2c0.1,0.2,0.2,0.3,0.4,0.4c0.1,0.1,0.3,0.2,0.4,0.2c0.2,0,0.3-0.1,0.5-0.2
		c0.1-0.1,0.3-0.4,0.4-0.7c0.7-1.6,2.2-2.6,3.6-3.3c0.7-0.3,1.3-0.5,1.7-0.7c0.2-0.1,0.4-0.1,0.5-0.1h0.1l0,0v-0.2v0.2l44.3-0.5
		l9.5-3.2l25.9-0.2l3.6,6.5l26.3-0.3l0.9,51h0.2h-0.2c0,0,0,0.3-0.1,0.8c-0.1,1.8-0.5,6.5-1.3,11.1c-0.4,2.3-0.8,4.6-1.3,6.5
		s-1.2,3.4-1.8,4.2l0,0c-0.5,0.5-1.3,0.9-2.4,1.3c-3.3,1-8.8,1.3-13.3,1.3c-2,0-3.8,0-5-0.1c-0.6,0-1.2,0-1.5-0.1
		c-0.4,0-0.5,0-0.5,0l0,0l-17.6-0.2v0.2v-0.2c0,0-0.1,0-0.3-0.1c-0.7-0.1-2.5-0.6-4.5-1.3c-2-0.8-4.2-1.9-5.7-3.5l0,0
		c-1.9-2.1-2.3-4.8-2.3-6.8c0-0.8,0.1-1.5,0.1-1.9c0-0.2,0.1-0.4,0.1-0.6v-0.1l0,0l0,0l-0.2-18.6l-30.6,0.5l-0.7,33.4l-26-0.5
		l-7.2-1.7l-14,1.8v0.1c0,0-0.4,0.6-0.4,1.6c0,1.4,0.7,3.4,3.7,5.8c0.8,0.6,1.4,1.5,1.9,2.6c1.5,3.3,1.8,8.5,1.8,12.7
		c0,1.9-0.1,3.6-0.1,4.9c0,0.6-0.1,1.1-0.1,1.5c0,0.3,0,0.5,0,0.5l0,0l0,0c0,0-0.6,39.2-0.6,43.4c0,2-1,3.6-2.4,4.8
		c-1.4,1.3-3.3,2.2-5.2,3.1l0,0c-0.3,0.1-0.9,0.3-1.6,0.4c-2.3,0.3-6.6,0.5-11.5,0.5c-6,0-12.9-0.2-18.4-0.4c-2.8-0.1-5.2-0.3-7-0.4
		c-0.9-0.1-1.6-0.1-2.2-0.2c-0.3,0-0.5-0.1-0.7-0.1s-0.3-0.1-0.3-0.1l0,0c-0.8-0.3-2.9-1.2-4.7-2.1c-0.9-0.4-1.8-0.8-2.5-1.2
		c-0.6-0.3-1.1-0.5-1.1-0.5h-0.1l-2.6,2.6l-11.2,1.4l-28.1-0.2l-13.6-5.1l-8.9,5.3l-18.9,0.7h-16.2l-13.3-1.8l-9.7,3l-27.7-1.2l0,0
		c0,0-0.2,0-0.6,0c-0.4,0-1,0-1.7,0c-2,0-5.2-0.1-8.1-0.5c-1.5-0.2-2.9-0.5-4.1-0.9c-1.2-0.4-2.2-0.9-2.9-1.6l0,0
		c-2.7-2.6-3-5.3-3-6.5c0-0.2,0-0.4,0-0.5V408l0,0l0,0l0,0l0,0c0,0,0-0.2,0-0.7c0.1-3.2,0.5-17.8,1-32.1c0.2-7.2,0.5-14.3,0.7-20
		s0.4-9.8,0.6-11.1c0.1-0.9,0.5-1.6,1.1-2.2c0.9-0.8,2.2-1.4,3.6-1.6c1.4-0.3,2.9-0.4,4.1-0.4c0.7,0,1.3,0,1.8,0.1
		c0.2,0,0.4,0,0.5,0c0.1,0,0.2,0,0.2,0l0,0l16.3-0.6l15.7-0.6l16.2,1.8l16.4-0.6l1.9-4.4l-6.7-8.5l-0.6-42.3h-8.4v-21.7l-47.1-0.6
		L-304.8,262.8h0.2H-304.8z"/>
	<path id="XMLID_76_" d="M-28.2,147.8l-0.5,89.5h-39.1c-7.7,0-11.2-2.8-11.2-8.5l0.3-54c0-5.8,3.8-8.7,11.2-8.7h16.7l0.2-18.4
		L-28.2,147.8 M-56.1,217.8h5.3v-34.4h-5.3c-0.1,0-0.2,0.1-0.2,0.2v34C-56.3,217.7-56.2,217.9-56.1,217.8 M-95.1,166.2
		c7.4,0,11.2,2.9,11.2,8.7l-0.3,62.4h-22.4l0.3-53.7c0-0.1-0.1-0.2-0.2-0.2h-5c-0.1,0-0.2,0.1-0.2,0.2l-0.3,53.7h-22.4l0.3-71.2
		h22.4v4.4C-108,167.6-102.4,166.2-95.1,166.2 M-150.8,166.2c7.4,0,11.2,2.9,11.2,8.7l-0.3,62.4H-179c-7.4,0-11.2-2.8-11.2-8.5
		l0.2-28.4c0-5.7,3.8-8.5,11.2-8.5h16.8v-8.4c0-0.1-0.1-0.2-0.2-0.2h-5c-0.1,0-0.2,0.1-0.2,0.2v4h-22.4v-12.7
		c0-5.8,3.8-8.7,11.2-8.7L-150.8,166.2 M-167.6,220.3h5.1v-10.6h-5.1c-0.1,0-0.2,0.1-0.2,0.2v10.2
		C-167.8,220.2-167.7,220.3-167.6,220.3 M-206.3,166.2c7.4,0,11.1,2.9,11.1,8.7v20c0,3.3-1.8,5.2-5.5,5.6c3.8,0.6,5.6,2.4,5.6,5.7
		l-0.2,36.2c0,0.1,0.1,0.2,0.2,0.2l27.9,0.3v16.8h-0.2v0.7h16.7c7.4,0,11.2,2.9,11.2,8.7v63h-22.3l-0.1-54.3c0-0.1-0.1-0.2-0.2-0.2
		h-5.3l0.1,54.5h-22.2l-0.2-72.5l-16.8-0.1c-7.5,0-11.3-2.8-11.3-8.4l0.3-40.8c0-0.1-0.1-0.2-0.2-0.2h-5.3v35.7h-22.4l0.1-79.7h39
		 M-223,193.7h5.3c0.1,0,0.2-0.1,0.2-0.2v-9.9c0-0.1-0.1-0.2-0.2-0.2h-5.3V193.7 M-251,166.2l-0.4,85.1c0,5.7-3.8,8.5-11.2,8.5
		h-38.8v-17.1h27.5c0.1,0,0.2-0.1,0.2-0.2v-4.1h-16.6c-7.4,0-11.2-2.8-11.2-8.5l0.2-55c0-5.8,3.8-8.7,11.2-8.7L-251,166.2
		 M-273.4,183.4h-5.3c-0.1,0-0.2,0.1-0.2,0.2l-0.2,36.5c0,0.1,0.1,0.2,0.2,0.2h5.3L-273.4,183.4 M-223.1,250.7v14.2h27.9v17h-27.9
		v32.5c0,0.1,0.1,0.2,0.2,0.2h5.4c0.1,0,0.2-0.1,0.2-0.2l-0.3-28.1h22.3l-0.4,37.4c0,5.7-3.8,8.5-11.1,8.5h-27.7
		c-7.4,0-11.1-2.8-11.1-8.5v-41.8l-8,0.2V265l8-0.2v-14.2h22.5 M3.8,257.6l0.3,7.1h28v17h-28l-0.3,32.7l5.6,0.2
		c0.1,0,0.2-0.2,0.2-0.2v-28.3H32v37.4c0,5.7-3.8,8.5-11.2,8.5h-28c-7.4,0-11.2-2.8-11.2-8.5v-41.8h-5.5v-17h5.5l-0.2-7.1L3.8,257.6
		 M-28.2,260.3v17.3l-28,0.1c-0.1,0-0.2,0.1-0.2,0.2v4l28-0.1v17.3h-28v33h-22.4l0.1-63c0-5.7,3.8-8.7,11.2-8.7L-28.2,260.3
		 M-95.2,260.5c7.4,0,11.2,2.9,11.2,8.7l-0.1,36.7h-27.8v8.4c0,0.1,0.1,0.2,0.2,0.2h5c0.1,0,0.2-0.1,0.2-0.2v-4.1h22.3v13.5
		c0,5.7-3.8,8.5-11.1,8.5H-123c-7.4,0-11.1-2.8-11.1-8.5l-0.1-54.5c0-5.8,3.8-8.7,11.2-8.7H-95.2 M-111.9,287.5h5.5v-9.6
		c0-0.1-0.1-0.2-0.2-0.2h-5c-0.1,0-0.2,0.1-0.2,0.2L-111.9,287.5 M-180.5,340.1l-0.2,7.6h27.9v17h-27.9l-0.2,32.2
		c0,0.1,0.1,0.2,0.2,0.2h5.2c0.1,0,0.2-0.1,0.2-0.2l0.2-27.7h22.3l-0.1,36.6c0,5.7-3.8,8.5-11.2,8.5H-192c-7.4,0-11.2-2.8-11.2-8.5
		l0.2-41h-5.5v-17h5.5l0.2-7.6L-180.5,340.1 M-108.4,343.3c7.4,0,11.2,2.9,11.2,8.7l-0.1,53.7c0,5.7-3.8,8.5-11.2,8.5h-27.9
		c-7.4,0-11.2-2.8-11.2-8.5l0.1-53.7c0-5.8,3.8-8.7,11.2-8.7H-108.4 M-125,397.1h5c0.1,0,0.2-0.1,0.2-0.2l0.1-36.2
		c0-0.1-0.1-0.2-0.2-0.2h-5c-0.1,0-0.2,0.1-0.2,0.2l-0.1,36.2C-125.3,397-125.2,397.1-125,397.1 M-211.9,343.3l-0.2,62.4
		c0,5.7-3.8,8.5-11.2,8.5h-27.9c-7.4,0-11.2-2.8-11.2-8.5l0.2-62.4h22.4l-0.2,53.6c0,0.1,0.1,0.2,0.2,0.2h5c0.1,0,0.2-0.1,0.2-0.2
		l0.2-53.6H-211.9 M-278.7,343.3c7.4,0,11.2,2.9,11.2,8.7l-0.2,62.2h-39.1c-7.4,0-11.2-2.8-11.2-8.5l0.2-28.1
		c0-5.7,3.8-8.5,11.2-8.5h16.7v-8.4c0-0.1-0.1-0.2-0.2-0.2h-5c-0.1,0-0.2,0.1-0.2,0.2v4h-22.5V352c0-5.8,3.8-8.7,11.2-8.7H-278.7
		 M-289.7,386.6h-5.4c-0.1,0-0.2,0.1-0.2,0.2l-0.2,10.7c0,0.1,0.1,0.2,0.2,0.2h5.4L-289.7,386.6 M-20.6,140.4h-7.6h-22.4H-58
		l-0.1,7.4l-0.1,10.9h-9.3c-5.4,0-9.8,1.3-13,3.8c-0.3,0.2-0.6,0.5-0.8,0.7c-0.3-0.3-0.6-0.5-0.8-0.7c-3.2-2.5-7.6-3.8-13-3.8
		c-3.3,0-6.4,0.3-9.2,0.8v-0.8h-7.5h-22.4h-7.5v1.6c-2.6-1.1-5.7-1.6-9.2-1.6h-27.9c-5.4,0-9.8,1.3-13,3.8c-0.3,0.2-0.6,0.5-0.9,0.7
		c-0.3-0.3-0.6-0.5-0.8-0.7c-3.2-2.6-7.5-3.8-13-3.8h-37.2h-7.3h-39.1c-5.4,0-9.8,1.3-13,3.8c-2.6,2-5.7,5.8-5.7,12.5l-0.2,54.9
		c0,2,0.3,3.8,0.8,5.3h-0.8v7.5v17.1v7.5h7.5h38.9c0.5,0,1,0,1.5,0v14.9v7.7l7.7-0.2h0.3v34.1c0,6.3,2.9,10.1,5.4,12.1h-14.6h-7.5
		v1.6c-2.6-1-5.6-1.6-9.1-1.6h-27.7c-5.4,0-9.8,1.3-13,3.8c-2.6,2-5.7,5.8-5.7,12.5v12.7v7.5h0.8c-0.5,1.6-0.8,3.3-0.8,5.4l-0.2,28
		l0,0l0,0c0,6.6,3.1,10.4,5.8,12.4c3.2,2.4,7.4,3.6,12.9,3.6h39.1h7.5v-1.5c2.6,1,5.6,1.5,9.1,1.5h27.9c5.4,0,9.7-1.2,12.9-3.6
		c0.9-0.7,1.8-1.6,2.7-2.7c0.9,1.1,1.8,2,2.7,2.7c3.2,2.4,7.4,3.6,12.9,3.6h27.9c5.4,0,9.7-1.2,12.9-3.6c0.3-0.2,0.6-0.5,0.9-0.7
		c0.3,0.3,0.6,0.5,0.9,0.7c3.2,2.4,7.4,3.6,12.9,3.6h27.9c5.4,0,9.7-1.2,12.9-3.6c2.7-2,5.8-5.8,5.8-12.4l0.1-53.7
		c0-6.5-3-10.3-5.6-12.4h0.1c3.5,0,6.4-0.5,8.9-1.5v1.5h7.5h22.4h7.5v-7.5v-25.5h20.4h2.5v16.7c0,6.6,3.2,10.4,5.8,12.4
		c3.2,2.4,7.5,3.6,12.9,3.6h28c5.5,0,9.7-1.2,12.9-3.6c2.7-2,5.8-5.8,5.8-12.4v-34.2v-7.5v-17v-7.5H32H11.3l-0.3-7.1H3.7h-22.4h-7.7
		l0.1,2.7h-2l-39.3,0.2c-6.3,0-10.8,1.8-13.8,4.5c-0.3-0.3-0.6-0.5-0.8-0.7c-3.2-2.5-7.6-3.8-13-3.8h-27.9c-5.4,0-9.8,1.3-13,3.8
		c-0.3,0.2-0.6,0.5-0.8,0.7c-0.3-0.3-0.6-0.5-0.8-0.7c-3.2-2.5-7.6-3.8-13-3.8h-9v-8.1h17.7h7.5h22.4h7.5h20.4h7.5v-1.4
		c2.5,0.9,5.5,1.4,9,1.4h39h7.5v-7.5l0.5-89.5L-20.6,140.4L-20.6,140.4z"/>
</g>
</svg>
