<svg xmlns="http://www.w3.org/2000/svg" width="567.25" height="566.625" xmlns:v="https://vecta.io/nano"><circle cx="283.312" cy="283.375" r="139" fill="#fff"/><path d="M282.625.063c-4.782 46.118-6.989 94.255-12.875 139.344-3.451-53.032-26.442-47.306-21.906-63.5C260.42 34.363 222.726 51.5 230.437 6.375c-19.814 46.905 14.596 37.878 3.281 58.969-24.856 39.088 20.372 37.298 8.438 79.406L176.125 20.438l39.719 134.375c-24.752-47.492-43.541-32.817-45.969-49.5-5.353-43.073-32.841-12.126-44.094-56.5.911 50.91 28.695 28.726 26.906 52.594-6.878 45.883 33.87 25.774 39.937 69.375l-1.906 1.563L81.844 83.719l90.719 106.687-.437.531c-40.575-34.517-52.451-13.998-60.937-28.531-21.099-37.931-34.975 1.053-62.031-35.875 19.917 46.862 37.342 15.888 44.625 38.687 10.751 44.871 40.728 11.588 62.656 48.75l-1.406 2.625-133.562-41.219 123.781 64.781c-.048.154-.077.315-.125.469-50.257-16.441-53.566 6.955-66.875-3.281-33.846-27.174-32.016 14.154-71-9.844 36.118 35.891 40.594.63 55.937 19 26.852 37.467 42.059-4.553 76.313 21.438-.108 1.018-.194 2.038-.281 3.063L.063 283.188l139.219 13.281c.024.272.068.541.094.813-53.119 3.132-47.513 26.193-63.687 21.563-41.47-12.814-24.545 24.939-69.625 16.969 46.79 20.084 37.943-14.342 58.969-2.906 39.022 25.131 37.453-20.336 79.75-7.906l.719 2.313L19.812 390.25 152.062 352c-43.522 23.543-30.091 41.526-46.375 43.781-43.109 5.057-12.331 32.771-56.781 43.719 50.915-.562 28.895-28.484 52.75-26.531 45.488 7.139 26.321-33.095 68.687-39.344l2 2.438L83.5 483.687l106.812-89.625c.191.161.37.34.563.5-34.569 40.503-14.078 52.415-28.625 60.875-37.968 21.034 1.005 35.007-35.969 62 46.896-19.836 15.938-37.319 38.75-44.562 44.9-10.677 11.664-40.758 48.906-62.625l-38.875 134.937c10.999-12.542 56.664-126.203 66.313-123.406-16.201 50.191 7.123 53.387-3.062 66.719-27.065 33.933 14.278 31.97-9.594 71.031 35.774-36.234.492-40.567 18.813-55.969 37.35-26.951-4.623-42.065 21.125-76.344l15.75 139.344c5.266-45.921 6.934-94.976 13.781-139.344 3.812 52.263 26.546 46.579 22.094 62.719-12.414 41.592 25.191 24.314 17.656 69.469 19.631-46.982-14.732-37.834-3.5-58.969 24.577-38.983-20.037-37.262-8.906-78.75l66.688 123.406-37.875-126.344c22.079 39.067 39.193 27.104 41.219 42.906 4.62 43.158 32.628 12.691 43.125 57.25-.046-50.918-28.194-29.229-26-53.063 7.645-45.686-33.287-26.418-38.719-69.844l109.25 88.719c-29.14-36.387-60.875-72.399-88.812-108.844 40.305 35.068 52.407 14.616 60.75 29.25 20.707 38.147 35.014-.705 61.688 36.5-19.432-47.065-37.203-16.251-44.25-39.125-10.325-45.141-40.817-11.784-62.375-49.812L545 393.094c-40.779-22.559-83.932-43.772-123.562-66.844 51.147 16.795 54.294-6.899 67.719 3.344 33.951 27.043 31.954-14.316 71.031 9.531-36.257-35.751-40.586-.471-56-18.781-27.175-37.609-42.256 5.28-77.094-21.656l140.094-15.25-139.844-12.781c-.003-.031.003-.063 0-.094 53.354-3.349 47.591-26.43 63.813-21.875 41.535 12.603 24.412-25.084 69.531-17.344-11.723-4.961-19.951-6.538-26.031-6.281-18.241.769-17.125 17.996-32.937 9.5-39.126-24.916-37.314 20.451-79.594 8.313L546.656 177c-44.912 12.132-91.347 28.927-135.437 38.938 48.346-24.501 33.641-43.542 50.406-45.844 43.115-5.005 12.411-32.732 56.875-43.625-50.916.499-28.96 28.45-52.812 26.469-45.947-7.269-25.961 33.863-70.062 39.406L483.937 82.25 376.094 172.5c-.034-.028-.06-.066-.094-.094 35.296-41.452 14.289-53.312 28.875-61.937 37.814-21.309-1.246-34.989 35.531-62.25-46.75 20.176-15.679 37.435-38.437 44.844-45.159 11.086-10.809 41.283-49.25 63.469l38.688-135.719c-9.838 12.247-57.694 126.864-65.312 124.406 16.329-50.791-7.226-53.888 2.938-67.312 26.917-34.051-14.421-31.897 9.281-71.063-35.617 36.389-.309 40.581-18.562 56.063-37.34 27.192 5.034 42.086-21.031 76.687L282.625.063zm.688 144.375c76.7 0 138.938 62.238 138.938 138.938s-62.238 138.937-138.937 138.937-138.969-62.238-138.969-138.937 62.269-138.938 138.969-138.938zm-21.594 23.469l16.594 14.656V199h-27.5l-14.437-16.062-.125 42.781 14.656-16.781h27.281l.125 80.938H262.25v-34.906c0-3.626 5.415-6.094 9-6.094h3.875v-4.094h-40.844v4.156h4.781c3.576 0 8.188 2.993 8.188 7.094v74.844c0 3.364-3.014 6.969-7.937 6.969h-5.094v4.281h40.969v-4.281h-4.719c-4.425 0-8.187-3.158-8.187-6.531l-.031-35.531 16.063.031v1l4.531 29.813 5.406-29.687v-1.094l18.031.063V331.5c0 3.01-3.623 6.344-8.031 6.344h-6v4.063h40.969v-3.937h-4.781c-5.458 0-9.219-3.162-9.219-7.312l.063-73.812c0-2.828 3.766-7.722 10.594-7.937h3.531v-4l-41.156.063v3.938h3.5c5.441-.043 10.457 4.72 10.594 8.063v32.906H288.25v-80.969h28.031l14 18.125v-44.656l-13.219 16.781h-28.75v-16.25l16.969-15h-43.562zm131.563 74.875c-.603 4.21-1.759 6.744-3.375 7.938-49.303-26.308-71.501 27.798-25.375 48.25 66.035 26.754-18.114 66.134-21.562 10.938h-3.812v34h4.313c-.334-3.367 2.38-6.696 2.5-6.875 54.57 22.404 78.55-26.306 30.563-50.312-63.597-28.038 13.093-64.299 16.75-9h4v-34.937h-4zm-217.25 2v4.156h4.781c3.576 0 8.188 2.993 8.188 7.094v74.844c0 3.364-3.014 6.969-7.937 6.969h-5.094v4.281h40.969v-4.281h-4.719c-4.425 0-8.187-3.158-8.187-6.531L204 254.969c0-3.626 5.415-6.094 9-6.094h3.875v-4.094h-40.844zM282.25 357.563c-.565-.002-1.144.014-1.719.031-2.759.083-5.617.388-8.656 1.031-1.252 3.237-.579 5.043 0 6.906 2.898.909 5.385 2.339 6.875 5.125l4.25 30.063 4.406-30.594c1.24-2.003 1.805-4.208 6.188-5.312 1.106-4.274.169-4.463 0-6.187-3.668-.592-7.388-1.052-11.344-1.062zm-42.844 17.219c-4.257 5.294-8.232 11.013-10.75 18.906 2.194 2.689 4.062 2.988 5.969 3.406 2.223-2.07 4.717-3.551 7.875-3.469l28.219 11.188-24.406-18.969c-1.127-2.068-2.738-3.645-1.531-8-3.168-3.075-3.793-2.357-5.375-3.062zm87.531.438c-3.436.486-4.687 1.929-6.031 3.344.62 2.973.611 5.871-1.094 8.531l-24.187 18.375 28.875-11.062c2.353.106 4.523-.474 7.625 2.813 4.27-1.119 3.983-2.043 5.406-3.031-2.326-6.383-5.143-12.729-10.594-18.969z" stroke="#000" stroke-width=".061"/></svg>