<svg xmlns="http://www.w3.org/2000/svg" xmlns:xlink="http://www.w3.org/1999/xlink" viewBox="0 0 496.2 496.2" xmlns:v="https://vecta.io/nano"><path d="M496.2 248.1C496.2 111.1 385.1 0 248.1 0S0 111.1 0 248.1s111.1 248.1 248.1 248.1 248.1-111.1 248.1-248.1z" fill="#334d5c"/><path d="M296.4 421l-118-13-38.3-120.9 25.2-33.7-39.1-136.5c-5.6-19.3 1.7-36 17.8-40.6 2.6-.8 5.3-1.1 7.9-1.1 12.5 0 23.7 8.4 27.3 20.5l23.1 80.6c3.7-13 13.4-21.4 26.2-21.6h.5c10.7 0 20.3 6.1 25.1 15.2 4.6-3.9 10.4-6 16.7-6.1h.5c15.4 0 28.1 12.5 28.4 27.9l.1 4.4 16.8-79.6c3.1-12.7 14.5-21.6 27.5-21.6 2.3 0 4.6.3 6.9.8 16.2 4 24.2 20.4 19.4 39.8l-37.1 175.6L296.4 421z" fill="#d69d76"/><path d="M233.4 302.4c3.6 12.4-3.5 25.5-16 29.1h0c-12.4 3.6-25.5-3.5-27.5-10.5L131 115.7c-5.2-17.9 2-30.9 14.4-34.5h0c12.5-3.6 25.5 3.5 29.1 16l58.9 205.2zm116.5-201.8c-12.6-3.1-25.3 4.5-28.4 17.1l-30.6 145.1-50.5 7 51.9 144.9L328.7 310l37-175.3c4.4-18.3-3.3-31-15.8-34.1z" fill="#fbc096"/><g fill="#d69d76"><use xlink:href="#B"/><path d="M273.8 275.1c-15.4 0-28.1-12.2-28.3-22.2l-1.7-55.1c-.3-20.1 11.1-34.3 27.8-34.6h.5c15.4 0 28.1 12.5 28.4 27.9l1.7 55.1c.1 7.7-2.7 14.8-8 20.3s-12.3 8.5-19.9 8.7l-.5-.1z"/></g><g fill="#fbc096"><use xlink:href="#B"/><path d="M259.3 256.1c-.9-12.3-11.5-22-29.5-21.7l-46.5 7-37.7 46.5 37.8 114 108.8 12.6-32.8-139.2-.1-19.2z"/><path d="M254.2 255.6c.2 13-10.1 23.7-23.1 23.9h0c-13 .2-23.7-10.1-23.8-17.4l-1.7-72.1c-.3-18.6 10-29.3 23-29.5h0c13-.2 23.7 10.1 23.9 23.1l1.7 72z"/></g><path d="M251.7 254.6s-.1 0 0 0c-1.6 0-2.8-1.3-2.7-2.8l2.2-78c0-1.5 1.3-2.7 2.8-2.7s2.7 1.3 2.7 2.8l-2.2 78c-.1 1.6-1.3 2.7-2.8 2.7z" fill="#d69d76"/><path d="M229.8 234.5l-27.1 2.8c-7.3.1-17.6 10.8-17.4 23.8s10.9 23.3 23.9 23.1l27.1-2.8c13-.2 23.3-10.9 23.1-23.9s-10.9-23.3-29.6-23z" fill="#fbc096"/><path d="M242.6 285.5c5.2-1.2 9.9-3.9 13.7-7.9a28.24 28.24 0 0 0 8-20.2c-.3-16.4-14.1-27.8-33.7-27.8h-.9-.4l-19.2 2.1-4.6-46.1c-.2-1.5-1.5-2.6-3-2.4s-2.6 1.5-2.4 3l4.6 46.1-24 2.6-27.9 35.2 4 3.2 29.5-34.1 43.6-4.6c18.6-.3 29.3 10 29.5 23 .2 12.6-9.5 23-22 23.8l-1.1-.8c-19.2-12.6-40.1-7.7-41-7.5-1.5.4-2.4 1.8-2 3.3s1.8 2.4 3.3 2c.2 0 19.4-4.6 36.7 6.8 13.2 8.7 21.8 24.3 25.6 46.4.2 1.3 1.4 2.3 2.7 2.3h.5c1.5-.3 2.5-1.7 2.2-3.2-3.5-20.1-10.7-35.2-21.7-45.2z" fill="#d69d76"/><defs ><path id="B" d="M297.2 246.3c.2 13-10.1 23.7-23.1 23.9h0c-13 .2-23.7-10.1-23.8-17.4l-1.7-55.2c-.3-18.6 10-29.3 23-29.5h0c13-.2 23.7 10.1 23.9 23.1l1.7 55.1z"/></defs></svg>