<svg viewBox="0 0 1279.96 1279.96" xmlns="http://www.w3.org/2000/svg" data-name="Layer 1" id="Layer_1"><path d="M648.5,833.23v-40s3.33-4.05,14-10.24,33.34,3.57,33.34,3.57c1.43-9.29-16.67-20-16.67-20l-.23-2.62c18.57-2.14,22.62,11.68,22.62,11.68s1.43,46.44,0,54.3S694,839,694,839s-34.3.24-38.58,0S648.5,833.23,648.5,833.23Zm50.25-405.39V339.56c0-16.46-13.34-26.35-29.8-26.35h-12.8c-16.46,0-29.8,9.89-29.8,26.35V494.3s16.34-20.73,38.77-23.58,92.2-3.66,109.35-2.23S890.55,485,911.24,553.6V958.54c0,113-91.64,177.79-204.69,177.79h-88c-113,0-204.7-64.74-204.7-177.79V324.61c0-113,91.65-181,204.7-181h88c113.05,0,204.69,67.93,204.69,181V427.84ZM596.28,665.25c-7.33,1.25-16.8,7.86-16.8,7.86v9.47h-8.39v10.36l6.61,5s.53,305.3,0,307.44-8.4,14.65-8.4,14.65V1024h9.47v7.15h6.43l.36,2.14c.35,2.15,3,3,3,3s20.37.71,23.58,0a12.45,12.45,0,0,0,5.72-3.57c17.51,0,28.23-7.86,28.23-7.86V871.23c8.93-19.3,45-25,52.52-25s7.86-8.58,7.86-8.58V779.76a46.48,46.48,0,0,1,2.14-14.29,12.1,12.1,0,0,1,8.22-7.86l90.75-18.22V676c-3.1-14.29-14.54-25.73-36.92-21.91s-69.55,26.2-93.85,30.25-33.22-22.15-33.22-22.15S603.6,664,596.28,665.25Z"></path></svg>