<svg xmlns="http://www.w3.org/2000/svg" xmlns:xlink="http://www.w3.org/1999/xlink" width="512" height="512" viewBox="0 0 135.467 135.467" xmlns:v="https://vecta.io/nano"><path d="M47.699 79.219l-1.155-.395c-.257-.015.037-.806.603-1.623.369-.533 1.072-2.409 1.563-4.17.855-3.07.918-3.195 1.539-3.041.627.156.643.119.521-1.152-.087-.904-.394-1.683-.987-2.501-1.043-1.44-1.068-2.115-.164-4.385.606-1.522.704-2.202.747-5.215.036-2.516.141-3.465.381-3.465.198 0 .261.183.157.455-.14.365-.071.412.348.24.288-.118 1.41-.278 2.493-.355 1.796-.127 1.971-.094 1.978.372.004.281.221.987.482 1.569l.475 1.058.633-.922c1.505-2.191 4.697-3.835 8.321-4.285l2.172-.22c.051.593 1.824 3.393 2.714 4.285l1.194 1.197-3.99.979-3.99.979 1.359.612c.747.337 2.949.919 4.892 1.294l3.941.823c.884.306-2.021 1.222-4.57 1.44-2.136.183-2.912.385-4.496 1.171-1.718.853-1.971.911-2.464.565-.838-.587-1.244-.469-1.247.362-.003.951-1.12 3.36-2.174 4.691-.447.565-.813 1.084-.813 1.154 0 .253 3.881 1.344 4.782 1.344.509 0 .925.097.925.216 0 .501-2.065 1.966-4.225 2.996-1.89.902-2.402 1.281-2.767 2.045-.476.998-.592 1.041-2.565.95a5.84 5.84 0 0 0-2.455.467c-1.76.778-2.924.908-4.159.464zm5.665-7.126c1.475-2.521 3.07-5.871 3.332-6.999l.189-.815-.63.544c-.509.439-.599.457-.468.096.288-.792.547-4.267.355-4.766-.149-.388-.28-.271-.669.599a33.34 33.34 0 0 0-.968 2.54c-.318.959-.558 1.339-.701 1.108-.281-.454-.637.873-1.344 5.011-.522 3.053-.681 4.789-.439 4.789.061 0 .665-.948 1.342-2.106zm-9.376-15.528c-3.302-2.094-4.036-5.667-2.43-11.822.463-1.775.925-4.099 1.025-5.164.173-1.832.196-1.885.436-.985.332 1.245.111 4.019-.625 7.849-.7 3.645-.594 5.186.519 7.54.417.882 1.209 1.999 1.761 2.484 1.242 1.091.945 1.133-.688.098zm28.191-4.02c-.096-.25-.097-.97-.003-1.599.159-1.063.242-1.156 1.165-1.309 2.045-.338 3.869-.191 4.665.376.422.3 1.151.623 1.622.717s.756.263.634.375c-.205.19-7.096 1.895-7.657 1.895-.138 0-.33-.205-.426-.455zm6.916-4.76c-2.761-3.263-4.023-6.383-3.698-9.145.18-1.528.846-3.283 1.616-4.258.405-.512.414-.488.167.406-.391 1.41-.318 5.111.134 6.847s2.273 5.804 3.15 7.036c1.164 1.635.28 1.062-1.368-.885z" fill="#fdfdfd"/><path d="M53.343 78.353c.413-.062 1.025-.061 1.359.004s-.004.116-.751.114-1.021-.055-.608-.117zm-1.388-5.784c0-.374.062-.527.137-.34a1.05 1.05 0 0 1 0 .679c-.075.187-.137.034-.137-.34zm4.599-7.769c.013-.317.077-.381.164-.164.079.196.069.431-.021.521s-.155-.07-.143-.357zm12.957-1.924a1.05 1.05 0 0 1 .679 0c.187.075.034.137-.34.137s-.527-.062-.34-.137zM55.985 61.37c-.072-.853-.032-1.451.089-1.329s.18.819.132 1.55l-.089 1.329zm18.079.055c-.092-.149.03-.272.272-.272s.364.122.272.272-.215.272-.272.272-.179-.122-.272-.272zm-29.379-4.96l-.518-.612.612.518c.575.487.735.705.518.705-.052 0-.327-.275-.612-.612zm5.64-1.291c0-.374.062-.527.137-.34a1.05 1.05 0 0 1 0 .679c-.075.187-.137.034-.137-.34zm7.839-.646c0-.056.214-.27.476-.476.431-.338.441-.328.103.103-.355.453-.578.597-.578.373zm7.955-3.347c.264-.069.631-.064.815.01s-.032.131-.481.125-.599-.066-.335-.135zm-24.185-1.307c.002-.747.055-1.021.117-.608s.061 1.025-.004 1.359-.116-.004-.114-.751zm-1.415-.838c.013-.317.077-.381.164-.164.079.196.069.431-.021.521s-.155-.07-.143-.357zm2.446-6.251c.013-.317.077-.381.164-.164.079.196.069.431-.021.521s-.155-.07-.143-.357z" fill="#e7e6e6"/><path d="M62.92 73.384c.271-.299.553-.544.628-.544s-.085.245-.356.544-.553.544-.628.544.085-.245.356-.544zM50.334 56.397c.006-.448.066-.599.135-.335s.064.631-.01.815-.131-.032-.125-.481z" fill="#e0dede"/><path d="M51.934 73.497c.013-.317.077-.381.164-.164.079.196.069.431-.021.521s-.155-.07-.143-.357zm1.682-20.142c.264-.069.631-.064.815.01s-.032.131-.481.125-.599-.066-.335-.135z" fill="#d8d6d6"/><path d="M43.283 40.633c.003-.598.059-.811.124-.472s.063.827-.005 1.087-.121-.017-.118-.615z" fill="#d1cece"/><path d="M68.133 91.73c-.274-1.341-2.472-6.011-3.819-8.118-.549-.859-.917-1.708-.816-1.886.303-.538 1.27-1.547 1.482-1.547.34 0 1.511 2.222 2.235 4.239.775 2.161 1.365 5.667 1.23 7.313l-.089 1.087zm-17.095-4.499c-.846-.447-1.571-1.228-1.571-1.693 0-.062 1.192-.055 2.65.014 1.956.093 3.036.011 4.126-.313l1.618-.44c.368 0-2.068 2.206-2.842 2.573-1.184.562-2.756.506-3.981-.141zm20.172-.254c0-.699-1.516-5.432-2.329-7.274-.347-.785-.525-1.427-.396-1.427.909 0 5.987 2.991 5.987 3.526 0 .25-3.015 5.715-3.153 5.715-.06 0-.109-.243-.109-.54zm-23.606-4.593c-.39-.568-.431-.862-.207-1.471.206-.558.19-.906-.06-1.307-.311-.498-.294-.521.197-.259.843.451 2.584.339 3.971-.256.853-.366 1.872-.544 3.115-.544 1.608 0 1.902-.079 2.273-.612.414-.593.427-.572.441.693.033 3.056-1.575 4.117-6.585 4.344-2.62.119-2.665.11-3.146-.59zm6.008-1.178c-.336-.162-.612-.399-.612-.525 0-.322.181-.291 1.114.191 1.049.543 1.875.292 1.875-.57 0-.983-1.097-1.583-2.587-1.415s-2.033.584-2.033 1.551c0 .994.161 1.102 1.608 1.081 1.096-.016 1.172-.054.634-.313zm5.91-1.095c-.001-1.072-.916-2.656-1.643-2.847-.291-.076-.526-.216-.521-.311.016-.318 1.201-1.017 2.826-1.668a9.73 9.73 0 0 0 2.854-1.857l1.242-1.212-1.869-.357-1.948-.435c-.043-.043.859-.086 2.005-.094 2.221-.016 3.716-.4 5.138-1.319 1.126-.728 1.128-1.008.005-.686-1.516.435-1.579.352-.894-1.174.352-.785.723-1.945.823-2.577.214-1.343 1.392-2.516 2.536-2.525.694-.005 4.288-1.155 4.606-1.473.293-.293-.139-.421-3.219-.949-3.278-.562-6.776-1.531-6.776-1.875 0-.259 5.495-1.591 8.018-1.943a34.4 34.4 0 0 1 3.853-.271l1.95-.005-1.404 1.34-1.404 1.34 2.172-.501c3.18-.733 7.086-1.143 9.103-.955 2.12.198 4.352.665 4.341.91-.004.097-.471.712-1.037 1.366l-1.029 1.19.115-.986.115-.986h-2.214c-2.172 0-6.815.925-6.815 1.357 0 .112.613.285 1.362.384 2.694.357 2.36.57-.762.485l-3.182-.087.935.493c1.629.858 1.365 1.15-.889.98l-2.024-.153.377 1.455c.488 1.881.477 3.079-.046 4.837-.503 1.695-1.854 3.285-3.372 3.97-1.218.549-1.304.718-.644 1.262.644.531 2.537 2.956 2.537 3.251 0 .136-.612-.193-1.361-.731-1.539-1.106-3.717-2.012-4.825-2.009-1.869.007-7.345 3.449-8.222 5.168-.303.594-.61 1.08-.681 1.08s-.131-.397-.131-.883zm-7.337-7.371c0-.682.604-4.324 1.103-6.651.164-.764.417-1.361.562-1.328s.678-.979 1.184-2.249l.92-2.31.006 1.359a16.09 16.09 0 0 1-.23 2.582c-.268 1.388-.199 1.581.389 1.093.553-.459.524-.23-.181 1.439-.641 1.518-3.459 6.709-3.642 6.709-.061 0-.111-.29-.111-.644zm26.592.092c-.418-.244-.416-.338.036-1.283.268-.561.57-1.405.671-1.876.163-.76.304-.868 1.255-.958l1.072-.056c0 .095-2.481 4.453-2.53 4.445-.028-.005-.255-.127-.503-.272zM46.166 57.255c-1.41-.774-2.361-1.796-3.127-3.363-1.012-2.069-1.107-4.16-.359-7.96.338-1.719.627-4.073.641-5.232l.083-2.106c.333 0 .714 2.94.898 6.931.237 5.151.579 6.762 1.688 7.942.749.797 1.683.848 1.439.078-.16-.503-.081-.529 1.137-.369.72.094 1.369.225 1.443.291s.179 1.096.233 2.289l.099 2.17-1.631-.085c-.923-.048-2.027-.303-2.544-.586zm26.447-2.502c-.612-1.344-.534-1.392 4.019-2.464 2.487-.585 4.265-1.131 4.172-1.282-.099-.16.131-.189.594-.072l.756.19-.72-1.169c-1.243-2.02-3.058-5.724-3.636-7.421-.628-1.844-1.027-5.523-.658-6.069.169-.251.29-.018.395.764.36 2.685 2.58 5.725 6.06 8.299 3.803 2.813 4.584 4.892 2.448 6.522-.685.522-2.282 1.001-6.802 2.038l-6.11 1.356c-.111 0-.345-.312-.518-.692zm-16.623-.507c0-.547-.168-.683-1.019-.819-.561-.09-1.641-.061-2.401.064-1.064.175-1.382.147-1.382-.123 0-.602 1.679-1.185 3.416-1.185h1.658v1.359c0 .747-.061 1.359-.136 1.359s-.136-.295-.136-.656zm2.057-.122c1.506-2.618 4.796-4.175 8.928-4.224l2.187-.026.207 1.631c.114.897.33 1.998.48 2.446l.273.815-.541-.679c-.297-.374-.797-1.199-1.111-1.835-.55-1.114-.615-1.155-1.847-1.155-2.684 0-6.089 1.241-7.93 2.891l-1.172 1.05.525-.913z" fill="#cbc7c7"/><path d="M57.076 85.75c.351-.374.699-.679.774-.679s-.151.306-.502.679-.699.679-.774.679.151-.306.502-.679zm20.156-50.146c0-.374.062-.527.137-.34a1.05 1.05 0 0 1 0 .679c-.075.187-.137.034-.137-.34z" fill="#c0bdbd"/><path d="M34.116 39.53l-4.167-7.713c-.067-.202 3.364-.29 11.341-.29 7.444 0 11.438.095 11.438.272 0 .149-.13.272-.288.272s-.212.122-.12.272-.03.272-.272.272-.364.122-.272.272-.023.272-.256.272-.393.153-.356.34-.077.312-.255.277c-.464-.09-.251.699.69 2.564l.82 1.625-1.454 1.466c-.8.806-1.396 1.559-1.325 1.674s-.069.209-.311.209-.364.122-.272.272-.03.272-.272.272-.364.122-.272.272.018.272-.165.272-.259.074-.168.165c.147.147-.974 1.466-1.246 1.466-.06 0-.174-.948-.254-2.106-.274-3.986-2.057-7.067-4.917-8.497-.895-.447-1.655-.783-1.688-.745s.065.834.219 1.77c.368 2.251-.058 5.87-1.125 9.541-.45 1.549-.855 2.849-.901 2.888s-1.914-3.269-4.153-7.352z" fill="#53edc6"/><path d="M46.925 47.146c-.319-2.327-.229-2.849.629-3.651.443-.414.729-.83.634-.924s-.022-.172.161-.172.258-.122.165-.272.03-.272.272-.272.364-.122.272-.272.03-.272.272-.272.382-.094.311-.209.525-.868 1.325-1.674l1.454-1.466-.82-1.625c-.941-1.865-1.154-2.653-.69-2.564.178.034.292-.09.255-.277s.123-.34.356-.34.348-.122.256-.272.03-.272.272-.272.364-.122.272-.272.02-.272.25-.272.67.493.978 1.096c.795 1.558 1.105 2.442.83 2.366-.13-.036-.273.057-.317.206-.131.447-.639.903-.858.771-.112-.068-.204.057-.204.278s-.135.446-.3.501c-.194.065-.058.673.384 1.721.487 1.153.603 1.719.403 1.961-.155.187-.184.34-.065.34s-.067.302-.414.671-.754.595-.905.502-.199-.048-.108.1-.312.737-.898 1.309-.999 1.145-.92 1.274.044.201-.079.16-.252.019-.286.135c-.12.402-.755.956-.957.833-.112-.068-.204.013-.204.179s-.349.676-.775 1.131l-.775.829zm6.109-5.494c.338-.431.328-.441-.103-.103-.262.205-.476.419-.476.476 0 .224.223.08.578-.373z" fill="#52e9c8"/><path d="M48.398 50.481c-.363-.185-.813-.71-.999-1.168-.314-.771-.28-.896.456-1.684.438-.468.796-.987.796-1.154s.092-.247.204-.179c.202.122.837-.431.957-.833.034-.115.163-.176.286-.135s.159-.031.079-.16.334-.702.92-1.274.99-1.161.898-1.309-.043-.193.108-.1.558-.132.905-.502.533-.671.414-.671-.09-.153.065-.34c.2-.242.084-.808-.403-1.961-.442-1.048-.578-1.657-.384-1.721.165-.055.3-.281.3-.501s.092-.346.204-.278c.236.143.913-.514.725-.703-.069-.069.047-.27.26-.446.318-.264.628.129 1.773 2.254 1.47 2.728 1.589 3.034 1.048 2.709-.212-.128-.19-.006.059.324.219.29.288.434.154.319s-.642.177-1.128.647l-.883.856.516 1.31c.443 1.125.466 1.407.159 1.999-.197.379-.437.609-.534.512s-.177.047-.177.321-.081.417-.18.319-.323.095-.498.43-.461.579-.636.542-.287.085-.25.272-.085.309-.272.272-.309.085-.272.272-.085.309-.272.272-.309.072-.272.243-.529.468-1.258.66-1.457.481-1.617.641c-.363.363-.438.36-1.25-.053zm7.591-8.489c.351-.374.699-.679.774-.679s-.151.306-.502.679-.699.679-.774.679.151-.306.502-.679zm-3.533.033c0-.056.214-.27.476-.476.431-.338.441-.328.103.103-.355.453-.578.597-.578.373z" fill="#52e3c9"/><path d="M45.497 60.293c-.077-.125.043-.226.268-.226s.471.102.548.226-.043.226-.268.226-.471-.102-.548-.226zm7.05-11.015c0-.179.132-.301.294-.272s.264-.1.226-.287.085-.309.272-.272.309-.085.272-.272.075-.309.25-.272.461-.207.636-.542.399-.529.498-.43.18-.045.18-.319.08-.419.177-.321.338-.133.534-.512c.307-.591.284-.874-.159-1.999l-.516-1.31.883-.856c.486-.471.993-.762 1.128-.647s.079-.008-.124-.273c-.32-.417-.311-.46.061-.317.523.201 3.077 5.052 2.606 4.948-.183-.04-.476.201-.651.537s-.399.529-.498.43-.18.031-.18.289c0 .286-.123.393-.314.275-.302-.187-.267.365.142 2.226.121.551.033.568-2.795.544-2.068-.018-2.92-.12-2.921-.35zm3.714-7.286c.351-.374.577-.679.502-.679s-.423.306-.774.679-.577.679-.502.679.423-.306.774-.679z" fill="#50dbcc"/><path d="M46.223 61.493l-.383-.865c-.024-.065.355-.163.841-.219.958-.109 1.051.078.568 1.14-.402.882-.603.872-1.025-.055zm11.883-12.106c.147-.184.166-.568.043-.872-.316-.783-.306-1.829.014-1.631.149.092.272-.03.272-.272s.122-.364.272-.272.272-.004.272-.214.266-.615.59-.899.507-.375.406-.201-.086.358.035.408c.234.097 1.743 2.715 1.623 2.815-.216.178-2.865 1.277-3.29 1.364-.361.074-.427.011-.237-.226z" fill="#50d6d0"/><use xlink:href="#B" fill="#a8a6a6"/><path d="M82.197 40.652c-.288-.204-.876-1.028-1.308-1.832l-.785-1.462 1.562-2.926 1.562-2.926 4.207.036 4.207.036-.607.646c-.334.355-.714.579-.846.498s-.205.014-.164.212a.22.22 0 0 1-.285.285c-.198-.041-.294.032-.214.162.146.236-1.206 1.694-1.643 1.774-.126.023-.196.142-.155.265s-.033.158-.164.076-.532.184-.89.589l-.651.737.679-.54.679-.54-.651.737c-.358.405-.759.671-.89.589s-.205.014-.164.212a.22.22 0 0 1-.285.285c-.198-.041-.294.032-.214.162s-.212.58-.65 1-.73.869-.65 1-.006.203-.191.162-.479.196-.652.528c-.278.533-.375.559-.838.232z" fill="#4ecad4"/><path d="M84.12 42.626c-.789-.436-1.767-1.365-1.767-1.678 0-.148.081-.189.18-.09s.323-.095.498-.43.47-.576.656-.535.272-.032.191-.162.212-.58.65-1 .73-.869.65-1 .016-.203.214-.162a.22.22 0 0 0 .285-.285c-.041-.198.033-.293.164-.212s.532-.184.89-.589l.651-.737-.679.54-.679.54.651-.737c.358-.405.759-.671.89-.589s.205.047.164-.076.028-.243.155-.265c.437-.079 1.789-1.538 1.643-1.774-.081-.13.016-.203.214-.162a.22.22 0 0 0 .285-.285c-.041-.198.034-.293.168-.21s.473-.121.754-.451c.506-.593.505-.595-.032-.197-.492.365-.511.361-.203-.033.25-.321.878-.45 2.381-.49 2.389-.063 2.803.092 2.153.811-.254.281-.571.443-.704.361s-.209.012-.168.21-.107.32-.333.269-.315.002-.201.116c.318.318-.908 1.47-1.565 1.47-.623 0-1.767 1.033-1.767 1.596 0 .186-.122.263-.272.17s-.272-.03-.272.139c0 .447-.714 1.091-.962.867-.117-.105-.137-.059-.045.102s-.617 1.069-1.574 2.018-1.687 1.812-1.621 1.919-.093.361-.353.564c-.437.343-.442.33-.07-.173.398-.537.396-.537-.197-.032-.33.282-.535.618-.455.747.185.3.102.288-.566-.082z" fill="#4ec3d6"/><path d="M85.125 43.447l-.897-.575.605-.644c.705-.75 1.019-.861.476-.168-.338.43-.328.44.1.105.26-.204.419-.458.353-.564s.663-.97 1.621-1.919 1.666-1.857 1.574-2.018-.071-.207.045-.102c.248.224.962-.42.962-.867 0-.169.122-.232.272-.139s.272-.001.272-.208c0-.549 1.169-1.558 1.805-1.558.629 0 1.836-1.161 1.527-1.47-.113-.113-.023-.166.201-.116s.374-.07.333-.269.034-.293.168-.21.473-.121.754-.451c.506-.593.505-.595-.032-.197-.507.376-.518.37-.16-.086.312-.397.735-.478 2.251-.434l1.867.055-.592.63c-.325.346-.699.563-.831.482s-.205.014-.164.212-.107.32-.333.269-.316.001-.203.114c.318.318-.628 1.2-1.288 1.2-.326 0-.684.092-.796.204a.9.9 0 0 1-.521.216c-.174.007-.283.169-.242.36s-.033.281-.164.2-.532.184-.89.589l-.651.737.679-.54.679-.54-.651.737c-.358.405-.759.671-.89.589s-.205.014-.164.212a.22.22 0 0 1-.285.285c-.198-.041-.295.03-.216.158s-.457.824-1.191 1.547-1.27 1.419-1.191 1.547-.002.199-.181.158-.54.292-.803.741-.615.785-.783.747-.274.085-.237.272-.116.299-.34.249-.317 0-.206.111c.202.202-.253.935-.575.926-.094-.002-.574-.263-1.068-.579z" fill="#4ec0d8"/><path d="M86.968 44.976c-.704-.749-.942-1.507-.445-1.413.173.033.284-.093.247-.28s.085-.309.272-.272.309-.085.272-.272.069-.309.237-.272.52-.299.783-.747.624-.782.803-.741.26-.03.181-.158.457-.824 1.191-1.547 1.27-1.419 1.191-1.547.018-.199.216-.158a.22.22 0 0 0 .285-.285c-.041-.198.033-.293.164-.212s.532-.184.89-.589l.651-.737-.679.54-.679.54.651-.737c.358-.405.759-.671.89-.589s.205-.009.164-.2.068-.353.242-.36a.9.9 0 0 0 .521-.216c.112-.112.47-.204.796-.204.66 0 1.607-.881 1.288-1.2-.112-.112-.021-.164.203-.114s.374-.07.333-.269.034-.293.168-.21.473-.121.754-.451c.506-.593.505-.595-.032-.197-.49.363-.511.361-.208-.028.231-.296.861-.45 2.017-.492 1.415-.051 1.631 0 1.365.32-.174.209-.235.461-.137.56s-.032.179-.29.179-.393.122-.301.272-.043.272-.301.272-.393.076-.301.168c.464.464-1.352 1.462-2.658 1.462-.588 0-.917.11-.817.272.092.149-.03.272-.272.272s-.364.122-.272.272-.03.272-.272.272-.364.122-.272.272.031.272-.136.272-.228.122-.136.272-.03.272-.272.272-.364.122-.272.272-.023.272-.256.272-.393.101-.356.224-.544.868-1.291 1.655-1.328 1.542-1.291 1.678-.123.247-.356.247-.348.122-.256.272-.043.272-.301.272-.394.075-.302.167-.432.751-1.164 1.464-1.256 1.372-1.164 1.464-.044.167-.302.167-.393.122-.301.272c.3.485-.026.288-.685-.414z" fill="#4ebdd8"/><path d="M88.406 46.537c-.781-1.14-.826-1.301-.408-1.467.259-.103.37-.195.248-.206s.391-.617 1.141-1.347 1.288-1.403 1.196-1.495.044-.167.302-.167.393-.122.301-.272.023-.272.256-.272.393-.111.356-.247.544-.891 1.291-1.678 1.328-1.532 1.291-1.655.123-.224.356-.224.348-.122.256-.272.03-.272.272-.272.364-.122.272-.272-.031-.272.136-.272.228-.122.136-.272.03-.272.272-.272.364-.122.272-.272.03-.272.272-.272.364-.122.272-.272c-.1-.162.23-.272.817-.272 1.306 0 3.122-.999 2.658-1.462-.093-.093.043-.168.301-.168s.393-.122.301-.272.043-.272.301-.272.389-.08.29-.179-.043-.343.124-.544c.35-.422 4.313-.525 4.313-.112 0 .139-.188.44-.417.67s-.444.513-.476.631-.159.18-.282.139-.158.032-.078.162-.212.58-.65 1-.73.869-.65 1-.005.203-.191.162-.481.2-.656.535-.399.529-.498.43-.18.031-.18.289-.122.393-.272.301-.272.03-.272.272c0 .279-.124.365-.34.236-.241-.145-.234-.074.024.245.318.393.294.435-.198.341-.333-.064-.537.023-.5.215.034.178-.111.286-.323.24-.315-.068-.323-.007-.044.329.29.35.252.395-.25.298s-.54-.052-.25.298c.279.336.271.397-.044.329-.212-.046-.355.07-.318.256s-.085.309-.272.272-.309.085-.272.272-.085.309-.272.272-.315.067-.285.231-.375.715-.901 1.223c-.939.908-.928.871.676-2.225 1.076-2.075 1.504-3.148 1.256-3.148-.207 0-.352.132-.323.294s-.109.261-.307.22-.294.032-.214.162-.212.58-.65 1-.73.869-.65 1-.005.203-.191.162-.481.2-.656.535-.399.529-.498.43-.18.045-.18.319-.081.417-.18.319-.323.095-.498.43-.461.579-.636.542-.287.085-.25.272-.085.309-.272.272-.309.085-.272.272-.094.306-.292.265-.288.042-.199.185.034.338-.12.433-.208.29-.12.433-.001.226-.199.185a.22.22 0 0 0-.285.285c.041.198-.033.293-.164.212s-.532.184-.89.589l-.651.737.679-.54.679-.54-.651.737c-.358.405-.786.66-.951.566s-.21-.071-.099.051c.201.221-.249.96-.575.943-.094-.005-.566-.585-1.049-1.289zm9.202-4.885c.338-.431.328-.441-.103-.103-.453.355-.597.578-.373.578.056 0 .27-.214.476-.476zm2.174-5.436c.338-.431.328-.441-.103-.103-.453.355-.597.578-.373.578.056 0 .27-.214.476-.476z" fill="#4eb9da"/><path d="M60.542 87.41c-.608-.608-.601-.704.155-2.036l.631-1.111.456.957c.516 1.081.586 1.594.184 1.346-.149-.092-.272.03-.272.272s-.113.37-.251.285-.291.052-.34.304c-.082.427-.122.426-.564-.016zm24.552-32.06c.062-.053.524-.234 1.027-.404.798-.27.871-.258.578.096-.184.222-.647.404-1.027.404s-.641-.043-.578-.096zm4.598-.439c0-.095.106-.288.236-.43.564-.617 3.586-6.722 3.469-7.009-.071-.174-.139-.095-.151.175s-.144.416-.293.324-.272.03-.272.272-.125.362-.279.268-.245-.01-.204.188a.22.22 0 0 1-.285.285c-.198-.041-.288.042-.199.185s.034.338-.12.433-.208.29-.12.433-.001.226-.199.185-.329.078-.292.265-.085.309-.272.272-.309.085-.272.272-.085.309-.272.272-.299.116-.249.34.012.329-.085.232c-.31-.31-.327-4.548-.018-4.494.156.027.25-.113.209-.311s.033-.293.164-.212.532-.184.89-.589l.651-.737-.679.54-.679.54.651-.737c.358-.405.759-.671.89-.589s.205-.014.164-.212a.22.22 0 0 1 .285-.285c.198.041.288-.042.199-.185s-.034-.338.12-.433.208-.29.12-.433.001-.226.199-.185.329-.078.292-.265.085-.309.272-.272.309-.085.272-.272.075-.309.25-.272.461-.207.636-.542.399-.529.498-.43.18-.045.18-.319.081-.417.18-.319.323-.095.498-.43.47-.576.656-.535.272-.032.191-.162.212-.58.65-1 .73-.869.65-1 .016-.203.214-.162.336-.058.307-.22.116-.294.323-.294c.248 0-.18 1.073-1.256 3.148-1.604 3.095-1.616 3.133-.676 2.225.526-.508.931-1.058.901-1.223s.098-.269.285-.231.309-.085.272-.272.085-.309.272-.272.309-.085.272-.272.106-.302.318-.256c.315.068.323.007.044-.329-.29-.35-.252-.395.25-.298s.54.052.25-.298c-.279-.336-.271-.397.044-.329.212.046.358-.062.323-.24-.037-.192.166-.279.5-.215.492.095.517.052.198-.341-.259-.319-.266-.39-.024-.245.216.13.34.044.34-.236 0-.242.122-.364.272-.272s.272-.043.272-.301.081-.388.18-.289.323-.095.498-.43.47-.576.656-.535.272-.032.191-.162.212-.58.65-1 .72-.885.628-1.035-.038-.192.121-.094c.178.11-.97 2.449-2.989 6.089l-3.603 6.518c-.179.334-.405.528-.502.43s-.177.047-.177.321-.081.417-.18.319-.323.095-.498.43-.461.579-.636.542-.287.085-.25.272-.106.302-.318.256c-.315-.068-.323-.007-.044.329.29.35.252.395-.25.298s-.54-.052-.25.298c.279.336.271.397-.044.329-.212-.046-.358.062-.323.24.037.192-.166.279-.5.215-.492-.095-.517-.052-.198.341.2.247.231.37.069.273s-.835.399-1.495 1.103l-1.2 1.279 1.223-1.084c.697-.618.43-.26-.619.83-1.013 1.053-1.778 1.979-1.699 2.058s-.04.144-.264.144-.408-.077-.408-.172zm7.338-12.886c0-.056.214-.27.476-.476.431-.338.441-.328.103.103-.355.453-.578.597-.578.373zm2.174-5.436c0-.056.214-.27.476-.476.431-.338.441-.328.103.103-.355.453-.578.597-.578.373z" fill="#4eb5dc"/><path d="M62.175 90.439c-.741-1.134-1.608-2.98-1.314-2.798.162.1.292-.015.292-.259s.122-.364.272-.272.272-.023.272-.256c0-.753.661-.319 1.422.935.813 1.338.936 1.773.412 1.459-.217-.13-.2-.032.046.271.333.41.333.464 0 .392-.212-.046-.355.07-.318.256s-.085.309-.272.272-.309.085-.272.272c.102.51-.095.411-.541-.272zm28.659-34.293c-.642-.172-1.07-.419-.951-.55s.058-.146-.144-.029c-.591.342-3.218-.092-3.218-.531 0-.21.082-.331.181-.27.237.146 2.406-2.067 2.837-2.894.183-.352.476-.609.651-.572s.287-.085.25-.272.085-.309.272-.272.309-.085.272-.272.094-.306.292-.265.288-.042.199-.185-.034-.338.12-.433.208-.29.12-.433.001-.226.199-.185a.22.22 0 0 0 .285-.285c-.041-.198.051-.282.204-.188s.279-.026.279-.268.122-.364.272-.272.281-.053.293-.324.08-.349.151-.175c.117.286-2.905 6.392-3.469 7.009-.35.383-.288.602.172.602.224 0 .343-.065.264-.144s.685-1.005 1.699-2.058c1.05-1.091 1.316-1.448.619-.83l-1.223 1.084 1.2-1.279c.66-.703 1.333-1.2 1.495-1.103s.131-.026-.069-.273c-.318-.393-.294-.435.198-.341.333.064.537-.023.5-.215-.034-.178.111-.286.323-.24.315.068.323.007.044-.329-.29-.35-.252-.395.25-.298s.54.052.25-.298c-.279-.336-.271-.397.044-.329.212.046.355-.07.318-.256s.085-.309.272-.272.306-.094.265-.292.051-.282.204-.188.279-.026.279-.268.122-.364.272-.272.281-.053.293-.324.076-.362.142-.203c.14.336-5.136 9.994-5.494 10.057-.132.024-.766-.098-1.409-.269z" fill="#4db1dd"/><path d="M51.046 85.429c.196-.079.431-.069.521.021s-.07.155-.357.143c-.317-.013-.381-.077-.164-.164zm10.858-14.14c.338-.065.827-.063 1.087.005s-.017.121-.615.118-.811-.059-.472-.124zm-5.621-16.546c.013-.317.077-.381.164-.164.079.196.069.431-.021.521s-.155-.07-.143-.357z" fill="#a09d9d"/><path d="M64.723 95.07c-1.148-2.072-1.32-2.595-.805-2.45.146.041.193-.041.106-.182s.02-.435.239-.654.322-.473.229-.565-.056-.167.081-.165c.333.005 2.016 4.042 2.016 4.837 0 .345-.113.558-.251.472s-.297.06-.352.324c-.066.313-.503-.246-1.263-1.617zm11.316-9.608c-.179-.179 8.719-16.519 9.069-16.654.131-.05.18-.184.11-.298s.244-.562.699-.996l.827-.789-1.019 1.903-4.407 8.018-3.756 6.819c-.202.387-.611.923-.907 1.191s-.474.594-.394.723c.163.263.015.319-.221.083z" fill="#4ea9e0"/><path d="M62.954 91.888c-.417-.858-.395-1.541.046-1.45.18.037.297-.085.259-.272s.106-.302.318-.256c.321.069.326.011.03-.346-.302-.364-.29-.404.08-.262.785.301 1.121 1.903.529 2.517-.192.199-.292.454-.223.566s-.059.205-.286.205-.566-.316-.753-.702zm22.544-23.91c-.082-.133.022-.383.232-.557.267-.222.434-.229.561-.024.099.16.018.258-.18.217s-.329.078-.292.265c.079.394-.104.45-.321.099z" fill="#4dacdd"/><path d="M66.829 98.996c-.709-1.32-.922-1.981-.767-2.374.119-.299.233-.421.254-.272s.135.027.254-.272c.164-.413.331-.03.693 1.585.262 1.171.575 2.027.694 1.903s1.83-3.161 3.8-6.749l3.895-6.723c.172-.11.202-.202.066-.204s-.043-.228.204-.502.42-.549.382-.612-.019-.084.042-.048.295-.086.52-.272c.357-.294.367-.259.083.274-.179.336-.444.612-.588.612s-.232.119-.194.264c.073.283-7.994 15.215-8.222 15.218-.075.001-.578-.822-1.119-1.829z" fill="#4ea4e2"/><path d="M53.475 49.558a1.05 1.05 0 0 1 .679 0c.187.075.034.137-.34.137s-.527-.062-.34-.137z" fill="#4acdb1"/><path d="M76.577 56.353a1.05 1.05 0 0 1 .679 0c.187.075.034.137-.34.137s-.527-.062-.34-.137zm-32.222-8.925c.006-.448.066-.599.135-.335s.064.631-.01.815-.131-.032-.125-.481z" fill="#999696"/><use xlink:href="#B" x="5.164" y="-8.426" fill="#44b1aa"/><path d="M50.616 69.307c0-.523.056-.737.124-.476s.068.69 0 .951-.124.048-.124-.476z" fill="#888686"/><path d="M35.419 31.324h11.687c3.166.043.498.079-5.93.079l-5.757-.079z" fill="#3bb193"/><path d="M44.345 45.117c0-.374.062-.527.137-.34a1.05 1.05 0 0 1 0 .679c-.075.187-.137.034-.137-.34z" fill="#817e7e"/><path d="M93.853 31.324h8.426c2.27.045.336.082-4.298.082l-4.128-.083z" fill="#3a8ca4"/><path d="M84.731 31.327a36.27 36.27 0 0 1 3.397 0c.934.053.17.096-1.699.096s-2.633-.043-1.699-.096z" fill="#399594"/><path d="M57.37 78.933c.013-.317.077-.381.164-.164.079.196.069.431-.021.521s-.155-.07-.143-.357zm22.216-10.229c.145-.145.491-.215.768-.157.374.079.305.148-.264.264-.496.101-.675.063-.505-.107zM56.314 53.407c.006-.448.066-.599.135-.335s.064.631-.01.815-.131-.032-.125-.481zm-7.188-.316a1.05 1.05 0 0 1 .679 0c.187.075.034.137-.34.137s-.527-.062-.34-.137zm20.244-2.538c0-.523.056-.737.124-.476s.068.69 0 .951-.124.048-.124-.476zm-25.046-4.507c.013-.317.077-.381.164-.164.079.196.069.431-.021.521s-.155-.07-.143-.357z" fill="#767474"/><path d="M79.886 48.99l-.659-.747.747.659c.699.616.872.836.659.836-.049 0-.385-.336-.747-.747z" fill="#676666"/><path d="M85.275 55.537a1.05 1.05 0 0 1 .679 0c.187.075.034.137-.34.137s-.527-.062-.34-.137z" fill="#346e8f"/><path d="M42.421 37.892c.013-.317.077-.381.164-.164.079.196.069.431-.021.521s-.155-.07-.143-.357z" fill="#605e5e"/><path d="M86.395 44.642c-.338-.431-.328-.441.103-.103.262.205.476.419.476.476 0 .224-.223.08-.578-.373z" fill="#2f6c71"/><path d="M61.175 64.8c.013-.317.077-.381.164-.164.079.196.069.431-.021.521s-.155-.07-.143-.357zm14.18-15.528c.411-.062 1.084-.062 1.495 0s.075.113-.747.113-1.159-.051-.747-.113z" fill="#575656"/><path d="M63.067 67.927c.205-.382.449-.504.757-.377 1.015.418 1.269.279 1.353-.736.046-.549.28-1.161.521-1.359.393-.323.419-.264.257.557l-.182 1.104c0 .578-1.193 1.376-2.059 1.376-.878 0-.927-.043-.648-.565z" fill="#a42024"/><path d="M53.067 85.427c.262-.068.69-.068.951 0s.048.124-.476.124-.737-.056-.476-.124zm23.641-18.838c0-.523.056-.737.124-.476s.068.69 0 .951-.124.048-.124-.476zM53.475 51.992c.336-.065.887-.065 1.223 0s.061.118-.612.118-.948-.053-.612-.118zm13.878-2.44c.196-.079.431-.069.521.021s-.07.155-.357.143c-.317-.013-.381-.077-.164-.164z" fill="#464545"/><use xlink:href="#B" x="14.133" y="10.6" fill="#8f1e22"/><path d="M40.566 36.556c.003-.598.059-.811.124-.472s.063.827-.005 1.087-.121-.017-.118-.615z" fill="#284d4f"/><path d="M68.513 91.707c.013-.317.077-.381.164-.164.079.196.069.431-.021.521s-.155-.07-.143-.357zm-11.437-5.685c.351-.374.699-.679.774-.679s-.151.306-.502.679-.699.679-.774.679.151-.306.502-.679zm29.574-26.685c.196-.079.431-.069.521.021s-.07.155-.357.143c-.317-.013-.381-.077-.164-.164z" fill="#383737"/><path d="M67.676 98.423c0-1.147-1.504-5.047-3.525-9.14-2.94-5.954-2.715-5.731-3.812-3.777-1.19 2.12-1.798 2.761-3.263 3.436-1.418.654-5.245 1.005-5.551.509-.104-.168-.398-.305-.655-.305s-.672-.214-.922-.476l-.732-.747c-.615-.603-1.924-2.258-1.924-2.433 0-.103-.352-.699-.783-1.325s-1.177-1.867-1.659-2.758c-.725-1.34-.853-1.829-.741-2.825.08-.711.315-1.305.572-1.449a.96.96 0 0 0 .436-.758c0-.283.124-.591.276-.684.465-.288 1.247-2.094 1.586-3.667.878-4.066.872-3.793.111-4.943-.975-1.473-.929-2.89.161-5.04l.859-1.693-.749-.167-1.222-.295c-.26-.071-.811-.189-1.223-.263-1.812-.325-3.815-2.033-5.539-4.725-.465-.726-1.326-4.141-1.326-5.261 0-.369.49-2.363 1.089-4.431 1.296-4.475 1.799-8.198 1.434-10.603l-.255-1.68 1.262.639c2.247 1.139 3.929 3.536 4.671 6.658.16.674.37 2.962.466 5.084.149 3.295.256 3.967.731 4.603.743.995 1.896 1.379 2.51.836.774-.686 3.504-1.091 6.053-.899 2.126.16 2.474.114 3.941-.527.885-.386 1.85-.835 2.145-.998.509-.28 3.371-.545 10.529-.975l3.183-.191-.802-1.192c-1.093-1.625-1.347-2.712-1.349-5.77-.001-2.492.424-4.334 1.374-5.948a31.96 31.96 0 0 0 .718-1.359c.263-.523 1.088-1.563 1.834-2.31l1.356-1.359.321 3.262c.403 4.086.671 5.238 1.585 6.797 1.007 1.718 2.122 2.934 3.772 4.113 3.538 2.529 4.945 4.622 4.743 7.057-.158 1.901-1.098 3.11-3.208 4.122-.896.43-1.547.864-1.446.965s.683.184 1.293.185c2.321.004 6.901.996 7.866 1.704.411.302.335.536-.812 2.507-1.257 2.16-5.139 6.386-5.868 6.388-.968.004-2.399 2.325-10.429 16.918l-8.859 15.696c-.122 0-.221-.229-.221-.509zm.944-8.535c-.092-1.162-.41-2.997-.707-4.077-.651-2.368-2.342-5.904-2.823-5.904-.328 0-2.034 1.743-2.034 2.079 0 .087.544 1.03 1.209 2.097 1.591 2.553 3.262 6.192 3.697 8.055.341 1.458.356 1.475.588.679.131-.448.163-1.766.071-2.929zM55.218 87.63c1.088-.563 3.217-2.531 3.217-2.975 0-.261-.443-.214-1.803.194-1.423.427-2.396.522-4.621.449-3.095-.101-3.285.013-2.173 1.307 1.17 1.36 3.772 1.855 5.379 1.024zm17.892-2.621c1.249-2.258 1.62-3.159 1.427-3.465-.695-1.103-5.985-3.963-6.457-3.49-.057.057.378 1.302.967 2.767.946 2.352 1.392 3.795 2.003 6.493.093.411.215.747.271.747s.861-1.373 1.789-3.051zm-21.198-1.957c3.894-.034 5.579-1.316 5.563-4.232-.008-1.438.037-1.564.473-1.33.728.389 1.303 1.709 1.303 2.988 0 1.107.016 1.128.519.673.285-.258.665-.822.843-1.253.221-.534 1.194-1.351 3.048-2.562 3.342-2.181 4.411-2.548 6.109-2.094 1.192.319 4.718 2.4 5.092 3.006.101.164.302.298.446.298.463 0-.85-2.212-2.117-3.566l-1.23-1.315.709-.27c1.211-.461 3.101-2.423 3.606-3.744.522-1.367.634-3.632.271-5.484l-.235-1.197 1.934.162c2.004.168 2.178.072 1.652-.911-.239-.447-.188-.53.34-.551 1.666-.068 3.178.117 4.612.563.867.27 1.509.381 1.426.246-.261-.422-1.82-1.139-3.482-1.601l-1.599-.444 2.006-.449c1.833-.41 3.755-.59 5.336-.499.737.042.805.748.193 2.019-.332.69-.08.511 1.223-.866.903-.955 1.642-1.837 1.642-1.961 0-1.322-7.911-1.549-12.981-.374-.977.227-1.823.365-1.881.307-.148-.148 1.778-1.808 2.097-1.808.144 0 .262-.141.262-.314 0-.23-.979-.269-3.656-.148l-3.656.165-.686-.816c-.822-.977-1.515-3.163-1.515-4.78 0-1.135-.029-1.175-.883-1.214-3.668-.167-6.924.537-8.788 1.899-.585.428-1.553 1.542-2.151 2.477l-1.087 1.699-.08-1.779-.08-1.779-1.189-.178c-1.467-.22-3.268.061-3.697.578-.38.458-2.842.526-3.938.109-.686-.261-.722-.236-.599.408.301 1.576-1.402-.001-1.965-1.819-.198-.641-.446-3.305-.551-5.921-.157-3.925-.294-5.025-.783-6.294-.97-2.52-1.28-2.496-1.469.111-.089 1.233-.535 3.673-.992 5.421-1.661 6.367-.777 10.237 2.809 12.297 1.193.685 3.4 1.24 4.936 1.24.875 0 .938.059.946.883.005.486-.321 1.866-.724 3.067-.821 2.447-.767 3.149.343 4.467.456.542.765 1.298.854 2.09.134 1.188.116 1.228-.423.939-.523-.28-.595-.189-1.006 1.261-1.249 4.409-1.806 6.01-2.206 6.342-.823.683-.899 1.412-.204 1.959.707.556.814 1.28.307 2.091-.288.462-.211.658.585 1.479s.995.905 1.488.639c.314-.169 1.61-.316 2.881-.327zm.227-1.698c-.815-.216-.858-.993-.093-1.651.946-.814 2.635-.833 3.429-.04.523.523.535.61.141 1.004s-.515.392-1.397-.029c-1.323-.631-1.582-.589-1.379.219.172.684.127.716-.7.497zm7.791-10.326c-1.205-.197-1.41-.535-.754-1.243.856-.923 1.903-3.044 2.112-4.278.206-1.218.441-1.333 1.19-.585.498.498.535.491 1.676-.275 1.868-1.254 5.583-2.201 3.998-1.018-.426.318-.747.819-.747 1.165 0 .995-.774 3.299-1.358 4.041-.772.981-.693 1.103.611.946l1.155-.14-1.447.675c-1.461.681-4.538 1.022-6.435.712zm5.286-2.795c.291-.291.665-1.033.83-1.648s.379-1.322.474-1.57c.143-.372.038-.353-.595.108-.526.383-.79.836-.837 1.435-.088 1.116-.176 1.189-1.035.863-.593-.225-.775-.175-1.114.308-.223.318-.342.68-.264.805.273.441 2.003.235 2.54-.302zm15.594 2.829c.699-1.277 1.272-2.408 1.272-2.514s-.6-.151-1.333-.101c-1.293.09-1.339.122-1.518 1.075-.101.54-.427 1.458-.724 2.04s-.501 1.089-.453 1.128c.225.179 1.191.678 1.329.685.085.005.727-1.036 1.427-2.313zm-.903-16.859c2.995-.681 5.588-1.419 5.963-1.697 2.706-2.007 1.981-4.171-2.514-7.503-3.858-2.86-5.68-5.908-5.731-9.585l-.027-1.954-.59.554c-.324.305-.836 1.128-1.138 1.829-1.723 4.005-.445 8.42 3.718 12.845 1.631 1.734 1.898 2.133 1.426 2.133-.738 0-2.436-.705-3.061-1.27-.396-.358-.911-.405-2.979-.269-1.375.091-2.607.272-2.739.403-.351.351-.304 3.245.078 4.759l.331 1.314.981-.177c.54-.097 3.366-.72 6.281-1.383z" fill="#181818"/><path d="M0 67.948V0h67.948 67.948v67.948 67.948H67.948 0zm77.594 15.985l9.435-17.173 2.384-2.328c2.847-2.78 5.231-6.481 4.476-6.948-1.392-.861-1.672-.167 4.898-12.12l6.992-12.684.807-1.43-11.738.071-11.738.071-1.527 2.779c-1.117 2.033-1.588 2.67-1.753 2.375-.124-.222-.376-1.961-.559-3.866l-.334-3.462-1.355 1.359c-.745.747-1.57 1.787-1.833 2.31s-.586 1.135-.719 1.359-.508 1.07-.835 1.88c-.521 1.291-.581 1.862-.488 4.62.088 2.598.212 3.35.714 4.307.967 1.843.651 2.115-2.723 2.346l-9.377.742c-.193.06-2.217-3.365-4.922-8.324l-4.595-8.426-11.747-.071-11.747-.071.806 1.43 4.519 8.185c3.572 6.499 3.706 6.8 3.535 7.94-.205 1.37.514 5.013 1.201 6.086 1.365 2.13 2.745 3.498 4.292 4.255 1.279.626 1.597.945 2.275 2.289.667 1.322.749 1.7.53 2.463-.303 1.057-.015 2.329.782 3.447.587.824.596.663-.271 4.679-.34 1.573-1.121 3.379-1.586 3.667-.152.094-.276.402-.276.684a.96.96 0 0 1-.436.758c-.257.144-.492.738-.572 1.449-.112.997.016 1.485.741 2.825.482.891 1.229 2.132 1.659 2.758s.783 1.222.783 1.325c0 .175 1.309 1.83 1.924 2.433a40.75 40.75 0 0 1 .732.747c.25.262.665.476.922.476s.552.137.655.305c.124.2.896.262 2.258.18 2.399-.145 4.252-.882 5.276-2.099.505-.6.75-.726.938-.482.14.182 1.937 3.419 3.993 7.193s3.836 6.863 3.954 6.863 4.46-7.728 9.65-17.173z"/><defs ><path id="B" d="M49.415 57.978c.196-.079.431-.069.521.021s-.07.155-.357.143c-.317-.013-.381-.077-.164-.164z"/></defs></svg>